<?xml version="1.0" standalone="no"?>
<!DOCTYPE svg PUBLIC "-//W3C//DTD SVG 20010904//EN"
 "http://www.w3.org/TR/2001/REC-SVG-20010904/DTD/svg10.dtd">
<svg version="1.0" xmlns="http://www.w3.org/2000/svg"
 width="1280.000000pt" height="1243.000000pt" viewBox="0 0 1280.000000 1243.000000"
 preserveAspectRatio="xMidYMid meet">
<metadata>
Created by potrace 1.15, written by Peter Selinger 2001-2017
</metadata>
<g transform="translate(0.000000,1243.000000) scale(0.100000,-0.100000)"
fill="#000000" stroke="none">
<path d="M7890 12420 l-125 -6 -215 -106 -215 -106 -141 -184 -142 -185 -45
-169 -45 -170 14 -125 c7 -68 16 -141 19 -161 l5 -38 -291 0 -291 0 -112 -76
c-61 -42 -206 -148 -322 -235 l-211 -159 -241 0 c-133 0 -242 -3 -242 -6 0 -3
38 -47 85 -97 l86 -91 157 -47 157 -48 252 -1 251 0 77 41 c145 78 96 31 -137
-134 -75 -53 -183 -133 -240 -178 -101 -81 -351 -297 -355 -308 -2 -3 16 -17
38 -29 23 -13 37 -27 33 -31 -5 -4 -79 -27 -164 -51 -85 -24 -160 -46 -167
-49 -17 -9 -191 -227 -235 -295 -21 -33 -38 -69 -38 -81 0 -21 7 -23 138 -36
l137 -14 -90 -6 c-49 -4 -132 -7 -184 -8 -93 -1 -94 -1 -76 -21 16 -18 101
-50 225 -85 48 -13 50 -14 15 -10 -157 17 -348 35 -349 33 -14 -22 -146 -259
-146 -262 0 -3 32 -27 72 -55 61 -43 68 -51 46 -51 -35 0 -112 -54 -257 -180
l-121 -105 133 -3 133 -3 24 -44 c13 -24 22 -46 20 -48 -3 -2 -28 -18 -56 -35
l-51 -32 -170 0 -171 0 -70 -97 c-82 -116 -145 -213 -195 -304 l-37 -66 -20
-298 -21 -297 99 -102 c78 -80 102 -112 115 -151 17 -49 164 -306 192 -335 13
-12 26 -11 107 8 51 12 135 31 186 43 l92 21 0 43 0 44 -92 54 c-86 51 -166
117 -141 117 16 0 176 -103 293 -188 530 -386 707 -489 1050 -613 96 -35 197
-78 224 -96 l49 -33 33 19 33 20 98 -34 c206 -70 284 -104 337 -148 l30 -24
34 24 c19 12 38 23 41 23 3 0 16 -18 29 -40 l23 -40 -59 0 -59 0 -134 -152
-135 -153 -184 -12 c-335 -22 -869 -43 -1257 -49 l-383 -7 0 46 c0 31 -4 47
-12 46 -7 0 -46 -6 -87 -12 l-74 -12 -75 -130 c-80 -141 -117 -195 -435 -652
l-210 -302 -41 25 c-298 181 -629 297 -975 340 -136 17 -439 19 -561 4 -485
-60 -879 -225 -1265 -529 -98 -77 -299 -280 -377 -381 -282 -365 -440 -740
-509 -1205 -20 -134 -18 -501 4 -645 83 -539 309 -993 685 -1373 380 -385 846
-620 1392 -704 144 -22 511 -24 645 -4 310 46 567 127 823 261 639 335 1106
949 1253 1648 52 249 66 576 34 817 -73 554 -316 1041 -718 1437 l-118 117
213 303 c210 299 301 418 317 418 11 0 65 -123 223 -505 223 -537 568 -1416
568 -1446 0 -4 -25 -9 -56 -11 l-57 -3 -128 -250 -129 -250 0 -143 0 -143 84
-176 85 -175 113 -85 c62 -47 138 -106 168 -132 l55 -48 137 -7 c118 -7 156
-4 278 15 l141 23 182 161 182 161 28 99 c38 137 57 269 57 401 0 98 2 112 18
117 9 2 40 14 69 25 l52 21 16 -49 17 -50 59 0 59 0 0 67 c0 77 11 73 29 -9
l12 -58 59 0 c32 0 94 5 137 11 106 14 335 68 350 83 17 16 100 274 127 396
l24 105 -46 42 c-81 72 -83 72 -145 19 -30 -25 -57 -46 -61 -46 -3 0 -6 31 -6
69 l0 68 -92 -18 c-50 -11 -93 -17 -95 -15 -3 2 3 16 12 30 21 31 15 41 -33
57 -66 21 -152 69 -152 84 0 20 10 19 40 -5 56 -43 19 -74 900 750 494 463
674 624 692 618 5 -2 53 -84 108 -183 l99 -179 -102 -106 c-335 -344 -544
-730 -647 -1191 -69 -310 -69 -716 1 -1033 103 -470 340 -892 691 -1231 402
-389 896 -619 1452 -675 148 -16 460 -8 606 15 414 64 826 246 1160 513 431
345 736 841 855 1387 40 188 50 289 49 515 0 297 -31 493 -119 756 -122 367
-309 672 -579 948 -659 671 -1642 900 -2537 591 -102 -36 -364 -158 -445 -209
l-40 -25 -54 107 c-29 59 -138 303 -241 542 l-187 435 -42 -2 c-84 -4 -190
-99 -190 -170 l0 -33 -469 0 -469 0 -62 -116 c-34 -64 -60 -118 -58 -119 2 -2
280 -8 618 -15 449 -8 617 -15 622 -23 4 -7 8 -30 8 -52 1 -22 5 -60 10 -85 4
-25 7 -46 6 -48 -2 -1 -20 23 -41 53 -20 30 -40 55 -44 55 -3 0 -74 -67 -156
-150 l-150 -150 -52 0 -53 0 0 -49 0 -50 -187 -163 c-475 -411 -864 -759
-1086 -970 l-88 -83 51 -78 c27 -42 50 -80 50 -83 0 -6 -124 96 -128 106 -2 4
6 53 18 108 11 55 20 105 20 111 0 7 -27 11 -73 11 l-73 0 -59 -84 c-33 -47
-61 -83 -63 -81 -11 11 107 383 175 550 104 257 680 1302 874 1586 l59 86 0
150 0 149 -86 124 c-162 234 -280 380 -480 595 -263 282 -281 296 -721 585
l-403 263 0 38 0 39 99 -65 c54 -36 103 -65 109 -65 5 0 39 39 75 88 106 143
206 318 190 332 -4 4 -42 20 -83 36 l-75 29 104 9 c102 9 105 10 135 44 84 95
212 253 248 307 22 33 39 55 37 49 -2 -5 -17 -40 -33 -76 l-28 -66 52 -143
c61 -168 111 -283 187 -434 54 -106 62 -117 262 -325 288 -301 446 -472 555
-604 88 -105 98 -114 155 -135 34 -12 113 -45 177 -73 l115 -51 35 -68 c19
-38 34 -77 34 -88 0 -25 17 -31 127 -38 84 -5 93 -4 93 11 0 27 -19 57 -71
113 -37 39 -49 59 -49 83 0 30 3 27 71 -55 50 -61 76 -84 87 -80 10 2 40 13
67 24 l50 19 3 55 3 55 -63 20 -63 20 45 1 c25 1 61 4 81 7 33 6 37 3 62 -35
15 -22 27 -43 27 -45 0 -2 -58 -58 -128 -124 l-128 -119 -75 -7 c-41 -4 -81
-11 -89 -16 -10 -6 -16 -55 -23 -189 l-10 -181 37 -55 36 -55 63 24 62 23 5
120 5 119 148 139 c82 77 158 146 169 153 18 13 20 13 15 -4 -13 -44 -47 -310
-58 -454 -6 -85 -9 -229 -6 -319 l5 -164 46 -46 46 -46 85 85 c122 121 149
159 277 395 114 210 115 211 136 330 12 66 24 135 28 153 l7 32 -62 0 c-58 0
-61 1 -67 28 -14 57 -54 127 -83 143 -37 21 -119 179 -99 190 17 10 131 39
135 35 2 -2 -18 -29 -43 -61 l-48 -58 40 -30 c83 -65 133 -125 140 -167 l7
-40 156 0 157 0 27 84 28 84 87 -24 c48 -13 93 -24 99 -24 10 0 13 23 13 85
l0 85 -57 1 -58 0 -125 156 -125 156 -150 32 c-155 34 -323 77 -457 119 l-77
24 -358 349 c-197 193 -398 387 -448 432 -79 73 -224 188 -264 210 -12 7 -10
32 7 162 42 302 62 507 69 684 l6 179 117 211 c64 115 127 226 138 245 20 31
22 49 22 173 l0 137 -40 80 -40 79 -67 3 -68 3 53 34 c28 18 52 36 52 40 0 4
-36 16 -80 26 -45 10 -83 21 -85 25 -5 8 32 70 43 70 4 0 31 -21 60 -46 51
-45 54 -46 72 -29 11 10 20 22 20 26 0 5 -48 64 -108 131 -232 265 -344 408
-402 511 l-33 59 32 31 32 32 32 -37 c18 -20 133 -157 257 -303 l225 -266 5
290 5 291 55 45 c30 25 58 45 62 45 4 0 8 -181 7 -402 l0 -403 83 -27 c46 -14
129 -36 185 -49 101 -23 102 -23 137 -4 l36 20 0 83 c0 79 2 86 36 138 20 30
40 57 46 60 5 4 -2 18 -16 33 l-27 28 85 59 85 59 1 58 0 57 40 0 c22 0 40 3
40 7 0 3 -12 40 -26 82 -14 41 -32 125 -39 186 -12 100 -12 111 3 124 42 34
89 44 221 49 l134 5 -7 81 c-6 74 -36 214 -81 371 -17 58 -24 67 -239 283
l-221 222 -80 25 c-44 13 -139 40 -211 59 -142 39 -161 40 -454 26z m678 -355
l180 -125 71 -109 c110 -169 139 -255 89 -265 -13 -3 -136 -16 -273 -30 l-250
-25 -250 -85 -250 -84 -155 -11 c-85 -6 -214 -13 -285 -17 l-131 -7 -47 34
c-26 18 -47 35 -47 38 0 4 13 51 29 106 38 133 86 248 158 375 l60 105 189
112 189 112 272 0 272 1 179 -125z m-917 -1512 c88 -92 119 -133 99 -133 -20
0 -145 33 -153 40 -5 4 -1 22 8 40 l16 32 -55 58 c-61 64 -78 107 -28 72 15
-11 66 -60 113 -109z m-843 70 l-3 -36 -125 -33 c-69 -18 -142 -39 -162 -48
-44 -19 -52 -20 -42 -5 4 7 59 36 123 66 64 29 134 62 156 73 55 26 57 25 53
-17z m927 -265 c-20 -12 -277 -70 -283 -64 -2 2 14 14 34 27 48 30 123 47 204
48 54 0 62 -2 45 -11z m-371 -250 c-33 -57 -224 -244 -224 -220 0 13 209 232
222 232 5 0 6 -6 2 -12z m-249 -705 c-21 -59 -55 -244 -83 -438 -8 -56 -9 -52
-16 83 -7 125 -10 142 -25 138 -9 -3 -45 -12 -81 -21 -36 -9 -73 -18 -83 -21
-16 -5 -18 0 -15 36 l3 42 115 48 115 48 3 76 3 76 43 0 44 0 -23 -67z m-27
-1113 c0 -19 -6 -57 -13 -85 -12 -48 -13 -44 -13 85 0 129 1 133 13 85 7 -27
13 -66 13 -85z m-1601 4 c26 -20 105 -93 175 -161 l126 -126 -51 -83 -52 -83
-80 -3 -80 -3 40 -19 c22 -10 56 -25 75 -35 l35 -16 -107 -3 -108 -3 0 -39 c0
-47 -10 -46 157 -20 71 11 137 22 147 23 17 2 19 -5 17 -80 l-2 -81 118 -63
c336 -178 669 -413 951 -670 l145 -133 -35 -30 c-20 -17 -107 -94 -193 -171
-238 -213 -284 -239 -285 -163 -1 32 -11 40 -427 318 -461 308 -622 423 -722
516 -82 76 -281 331 -281 361 0 41 48 258 75 339 60 181 187 401 258 444 43
27 48 26 104 -16z m1796 -516 c94 -93 168 -168 163 -168 -11 0 -108 77 -275
219 l-123 104 6 45 c3 25 6 52 6 61 0 9 12 -9 26 -39 20 -43 62 -90 197 -222z
m-3044 -238 c29 -176 33 -186 112 -275 92 -105 159 -194 159 -211 0 -30 -39
-11 -91 44 -30 31 -94 116 -141 187 l-86 130 6 170 c4 126 8 158 13 125 5 -25
17 -101 28 -170z m3421 -61 c60 -41 209 -122 350 -191 345 -170 363 -185 204
-175 -80 5 -107 11 -158 36 -73 36 -204 134 -386 289 -147 126 -181 156 -140
129 14 -9 72 -49 130 -88z m1875 -686 c-10 -130 -1 -120 -112 -127 -54 -4
-113 -10 -130 -13 -33 -5 -33 -5 -33 34 l0 39 88 -18 c48 -10 94 -18 102 -18
10 0 27 32 50 90 19 49 36 90 38 90 2 0 0 -35 -3 -77z m-673 -124 c70 -41 146
-116 219 -216 33 -46 64 -83 68 -83 5 0 28 7 51 15 23 8 46 15 51 15 25 0 0
-145 -53 -311 -34 -102 -40 -112 -153 -257 l-119 -152 -78 0 -78 0 0 198 1
197 63 251 63 251 -50 61 c-27 34 -46 62 -43 62 3 0 29 -14 58 -31z m-2589
-1367 c11 -17 -66 -172 -79 -159 -2 2 6 27 17 56 11 30 18 56 15 59 -3 2 -67
11 -143 18 -76 7 -145 14 -153 16 -8 1 50 5 130 8 80 3 159 7 177 8 17 1 34
-1 36 -6z m-688 -46 c6 -2 -16 -9 -47 -16 -31 -7 -62 -16 -68 -20 -9 -6 -2
-41 28 -134 l39 -126 -121 -76 c-66 -43 -162 -110 -212 -150 -100 -80 -181
-134 -200 -134 -7 0 -19 19 -27 43 -8 23 -49 131 -91 241 -95 248 -116 311
-116 352 l0 32 403 -5 c221 -2 407 -6 412 -7z m4993 -486 c904 -98 1637 -733
1857 -1609 45 -184 59 -302 59 -516 0 -144 -5 -231 -18 -310 -76 -470 -264
-848 -585 -1178 -186 -190 -351 -311 -586 -427 -552 -274 -1208 -294 -1772
-54 -689 292 -1175 918 -1283 1651 -35 241 -26 530 25 778 28 133 101 342 170
482 97 199 257 425 393 557 l40 38 25 -43 c14 -24 83 -150 154 -279 143 -259
432 -718 551 -876 67 -88 98 -118 236 -225 198 -155 336 -248 421 -283 l65
-28 75 67 75 67 0 76 0 76 -62 63 -62 63 -98 0 -97 0 -207 228 c-239 263 -188
178 -540 907 -208 431 -212 440 -192 456 36 28 227 128 311 163 210 86 368
125 642 159 67 9 312 6 403 -3z m-7898 -210 c243 -30 486 -101 695 -205 72
-35 146 -74 166 -87 l37 -23 -221 -315 c-121 -173 -285 -407 -364 -519 l-143
-204 -283 -134 -282 -134 -145 -148 c-99 -100 -158 -170 -187 -218 l-42 -71
45 -148 c24 -81 44 -149 44 -151 0 -1 16 -3 35 -3 l35 0 0 -60 c0 -59 0 -60
28 -60 36 0 52 -16 52 -52 l0 -28 -103 0 -102 0 -43 67 c-23 38 -50 82 -61 98
l-19 30 43 110 42 110 -21 23 -21 23 -37 -118 c-21 -65 -38 -126 -38 -136 0
-9 20 -59 44 -111 38 -83 48 -95 77 -104 75 -25 141 -34 273 -40 l139 -7 20
-52 19 -52 50 20 c28 11 51 18 53 17 4 -6 -39 -208 -44 -208 -3 0 -28 32 -56
69 -27 38 -51 68 -53 66 -2 -2 8 -40 22 -86 14 -45 24 -84 22 -86 -2 -2 -30
-14 -62 -26 l-59 -23 -3 -117 -3 -116 83 -40 c46 -21 84 -39 85 -38 1 1 -27
26 -63 55 l-64 52 0 63 0 62 132 65 c120 59 210 122 195 136 -3 3 -27 -4 -53
-15 -26 -12 -49 -19 -52 -17 -7 7 29 145 39 152 5 3 35 -16 66 -43 l57 -48
-33 61 c-40 76 -86 124 -117 124 -22 0 -24 4 -24 45 l0 45 52 -21 c29 -11 56
-23 60 -25 4 -3 8 13 8 35 l0 41 60 0 60 0 0 40 0 40 65 0 c36 0 65 4 65 9 0
5 -9 30 -20 56 -27 62 -26 65 15 65 l36 0 -5 73 c-3 39 -11 148 -17 240 l-11
168 27 20 c30 24 110 129 317 414 79 110 201 273 269 362 69 88 181 240 249
337 69 96 130 175 136 175 19 1 224 -218 300 -319 228 -305 372 -666 414
-1040 16 -140 8 -475 -14 -595 -57 -308 -158 -567 -316 -809 -94 -144 -172
-239 -295 -361 -690 -681 -1755 -808 -2593 -311 -278 165 -546 429 -721 710
-385 617 -423 1407 -101 2061 314 638 902 1069 1603 1175 140 21 423 26 557
10z m3427 -72 c-6 -102 -47 -259 -137 -528 -55 -167 -163 -472 -195 -552 -5
-12 -18 -18 -42 -18 -43 0 -66 -12 -92 -49 l-21 -28 53 -36 c108 -71 201 -107
280 -107 l37 0 0 -55 c0 -49 -2 -55 -21 -55 -11 0 -48 13 -82 30 -41 19 -106
37 -190 52 l-128 23 -116 291 -116 292 103 113 c90 101 331 396 461 566 36 46
65 70 120 101 41 22 78 41 83 41 5 1 6 -36 3 -81z m-72 -1178 c47 -18 85 -34
85 -36 0 -2 -28 -4 -62 -4 l-63 0 -48 61 -49 61 24 25 23 25 3 -50 3 -50 84
-32z m641 -46 c255 -102 244 -97 244 -107 0 -9 -217 0 -232 9 -4 3 -5 11 -1
19 3 8 2 22 -1 30 -5 14 -12 12 -43 -10 l-38 -25 -3 46 -3 45 -80 -3 c-43 -2
-79 -1 -79 2 0 7 39 70 43 70 2 0 88 -34 193 -76z m-3963 -241 l-49 -78 -102
-12 c-55 -6 -127 -17 -158 -22 -32 -6 -59 -10 -60 -8 -5 4 158 100 235 138 61
30 172 69 180 63 2 -2 -19 -38 -46 -81z m3932 8 c-21 -43 -35 -84 -33 -99 3
-25 6 -23 69 43 37 39 80 86 97 105 l32 35 -35 -70 c-19 -38 -38 -89 -43 -112
-12 -52 -21 -50 148 -23 147 24 278 56 427 104 59 20 109 34 111 32 2 -2 -2
-31 -9 -65 -7 -40 -17 -62 -28 -65 -97 -29 -1413 -256 -1482 -256 -21 0 -211
81 -204 88 1 2 106 16 233 31 126 16 235 31 240 35 6 3 13 20 17 36 4 16 10
32 14 34 4 3 38 -4 76 -15 l70 -19 88 92 c89 93 97 94 56 4 l-18 -41 25 -3
c39 -5 53 4 70 43 15 37 105 167 111 161 2 -1 -13 -36 -32 -75z m445 -293 l0
-43 -60 3 -60 4 0 39 0 39 60 0 60 0 0 -42z m-1318 -134 c32 -4 62 -12 67 -18
10 -14 34 -86 29 -91 -1 -1 -52 8 -113 21 -60 13 -113 24 -116 24 -3 0 -18
-32 -32 -71 l-26 -71 32 -40 c70 -87 119 -87 225 3 72 60 72 60 72 31 0 -39
-51 -115 -101 -152 -68 -49 -116 -40 -221 38 l-48 36 0 81 0 81 53 72 c50 70
53 72 87 68 19 -3 61 -8 92 -12z m-571 -256 c12 -22 6 -158 -8 -181 -8 -13
-42 114 -43 159 0 49 30 62 51 22z m209 -363 c64 -64 64 -65 35 -65 -26 0 -78
23 -150 66 -18 11 -17 13 11 38 16 14 31 26 34 26 3 0 35 -29 70 -65z"/>
<path d="M7920 12131 c-165 -47 -165 -47 -302 -139 l-136 -91 -12 -56 c-21
-100 -5 -99 209 10 l166 86 226 16 226 16 139 -37 c76 -21 146 -39 154 -42 16
-4 54 51 45 65 -2 5 -53 43 -112 86 l-108 78 -145 24 c-80 12 -154 25 -165 27
-11 2 -94 -18 -185 -43z"/>
<path d="M8109 11845 c-317 -51 -564 -139 -649 -232 -46 -49 -47 -56 -19 -102
18 -31 23 -33 57 -26 20 4 135 42 254 86 l216 79 264 15 c145 8 287 18 316 21
l53 6 -3 51 -3 51 -150 38 c-82 20 -159 37 -170 37 -11 -1 -86 -11 -166 -24z"/>
<path d="M10843 4418 l-53 -21 0 -137 0 -137 103 -38 c138 -51 251 -109 377
-194 l105 -70 63 67 c71 76 122 147 122 172 0 41 -328 247 -533 334 -59 25
-113 45 -120 45 -7 -1 -36 -10 -64 -21z"/>
<path d="M718 1967 l-88 -20 0 -52 c0 -94 74 -261 199 -447 79 -118 216 -268
244 -268 11 0 71 51 134 113 l115 113 -64 62 c-84 80 -155 180 -263 370 l-88
152 -51 -1 c-28 -1 -90 -10 -138 -22z"/>
<path d="M2414 1520 c-69 -39 -107 -85 -94 -111 23 -41 81 -10 126 67 15 25
28 43 30 41 2 -1 -3 -43 -10 -93 -7 -49 -12 -91 -10 -93 7 -8 239 21 252 31 6
6 12 25 12 43 l0 33 -72 -14 c-40 -8 -84 -16 -98 -19 -25 -5 -27 -2 -45 70
-10 41 -23 75 -29 75 -6 0 -34 -13 -62 -30z"/>
<path d="M4545 6652 l-329 -86 -236 22 c-129 12 -276 25 -327 28 l-92 7 -50
-78 c-28 -43 -51 -85 -51 -95 0 -23 37 -56 85 -76 97 -40 96 -38 15 -44 l-75
-6 55 -25 c30 -14 64 -30 75 -35 16 -7 12 -9 -23 -12 l-43 -3 7 -37 c3 -20 16
-57 27 -82 l22 -45 75 -7 c41 -4 192 -11 335 -17 l260 -10 219 117 c120 64
223 119 228 121 5 2 -2 -15 -16 -38 -14 -22 -26 -43 -26 -46 0 -3 37 -47 81
-98 109 -122 180 -218 285 -377 65 -99 90 -130 103 -127 9 3 54 19 101 35 97
34 180 50 180 34 0 -5 -8 -13 -17 -16 -23 -9 -83 -49 -83 -56 0 -3 214 -6 475
-8 261 -1 475 0 475 3 0 24 -136 410 -153 437 -31 46 -103 86 -251 142 -164
61 -315 132 -508 240 l-156 87 -54 -21 c-29 -11 -54 -20 -54 -20 -1 0 0 28 3
63 l5 62 -105 78 c-57 42 -111 77 -118 76 -8 0 -162 -39 -344 -87z m465 -234
c-21 -18 -170 -92 -222 -111 -33 -12 -18 13 24 39 63 40 180 94 203 94 19 -1
18 -2 -5 -22z"/>
<path d="M7920 6672 c0 -14 56 -95 97 -139 38 -42 38 -42 71 -28 23 10 39 28
53 61 11 25 19 47 17 48 -1 2 -40 17 -85 35 -78 29 -153 41 -153 23z"/>
<path d="M4313 6019 l-52 -20 50 -112 c60 -135 111 -247 113 -247 10 0 133 57
135 63 4 13 -172 337 -183 336 -6 0 -34 -9 -63 -20z"/>
<path d="M8460 5929 c-165 -78 -231 -139 -136 -126 76 11 172 55 211 98 59 66
29 77 -75 28z"/>
<path d="M3870 5614 l0 -106 64 -107 c60 -99 118 -171 136 -171 25 0 70 96 70
148 0 8 6 12 13 9 6 -3 36 -14 65 -26 l52 -21 0 68 0 68 -80 48 -80 49 0 73 0
74 -120 0 -120 0 0 -106z"/>
<path d="M4717 4290 c-26 -43 -61 -120 -78 -171 -16 -50 -50 -134 -75 -187
l-44 -95 106 -206 c103 -200 170 -312 189 -317 6 -2 60 56 121 128 l112 130
-53 157 c-65 192 -214 610 -223 628 -5 8 -24 -15 -55 -67z"/>
</g>
</svg>
