<?xml version="1.0" standalone="no"?>
<!DOCTYPE svg PUBLIC "-//W3C//DTD SVG 20010904//EN"
 "http://www.w3.org/TR/2001/REC-SVG-20010904/DTD/svg10.dtd">
<svg version="1.0" xmlns="http://www.w3.org/2000/svg"
 width="1280.000000pt" height="1243.000000pt" viewBox="0 0 1280.000000 1243.000000"
 preserveAspectRatio="xMidYMid meet">
<metadata>
Created by potrace 1.15, written by Peter Selinger 2001-2017
</metadata>
<g transform="translate(0.000000,1243.000000) scale(0.100000,-0.100000)"
fill="#673ab7" stroke="none">
<path d="M6320 12230 l-185 -200 -5 -266 -5 -265 -377 1 c-208 0 -378 -3 -378
-6 0 -4 25 -47 56 -95 l56 -89 329 0 c181 0 329 -4 329 -8 0 -5 -18 -57 -41
-117 -22 -59 -48 -142 -56 -184 -25 -119 -74 -158 -351 -285 l-143 -66 -137
-1 c-75 -1 -207 -5 -292 -8 -133 -6 -151 -8 -127 -19 480 -209 604 -262 610
-262 4 0 119 66 255 146 136 80 251 146 255 147 5 1 45 -55 90 -124 126 -195
181 -249 253 -249 24 0 44 3 44 8 0 4 -20 110 -45 236 -25 126 -45 234 -45
240 0 6 18 -29 39 -79 105 -247 204 -408 356 -577 l96 -108 -188 0 -188 0
-234 -185 c-129 -102 -238 -185 -242 -185 -4 0 -11 10 -14 23 -19 61 -108 342
-110 345 -1 1 -41 -21 -88 -50 l-86 -53 -1 -562 0 -562 -47 5 c-27 2 -201 16
-387 29 -187 14 -341 27 -343 29 -3 2 -49 199 -104 438 -54 238 -112 488 -128
555 l-29 122 49 253 c27 139 49 256 49 261 0 10 -69 9 -112 -3 -120 -34 -173
-171 -173 -445 0 -187 26 -320 105 -549 11 -33 19 -61 17 -62 -2 -2 -91 75
-198 170 l-194 174 -67 -66 c-38 -37 -68 -69 -68 -72 0 -3 69 -65 153 -137
171 -147 328 -304 310 -310 -22 -8 -184 63 -475 209 l-297 149 -27 72 c-61
162 -79 205 -89 207 -17 3 -286 -102 -283 -111 5 -14 400 -429 417 -438 9 -5
131 -50 271 -101 140 -51 265 -96 276 -100 19 -8 -14 -43 -283 -313 l-305
-304 -10 -169 c-7 -121 -7 -192 1 -248 6 -44 10 -80 8 -82 -5 -5 -162 98 -165
109 -1 6 35 141 80 299 l83 286 203 216 203 216 -175 0 -175 0 -211 125 c-344
205 -532 359 -729 598 l-104 125 -181 -133 -181 -133 -3 -656 -2 -655 197
-266 197 -265 221 -126 c242 -138 446 -241 542 -273 61 -21 173 -29 173 -13 0
5 -13 112 -30 238 -16 126 -29 234 -29 239 0 6 9 -17 20 -50 10 -33 51 -165
91 -292 l73 -233 45 0 c86 0 133 -49 195 -204 l36 -88 -36 -166 c-115 -531
-204 -885 -232 -929 -6 -8 -112 32 -352 133 -189 79 -353 144 -365 144 -12 1
-191 -18 -399 -42 l-379 -42 -265 -206 -265 -205 -205 -390 -204 -390 6 -180
c3 -99 10 -310 15 -470 5 -159 14 -436 20 -615 l11 -325 206 -530 205 -530
386 -581 386 -581 543 -399 543 -400 474 -113 473 -114 329 61 329 62 362 362
361 363 42 195 c44 208 85 346 131 448 32 71 115 182 136 182 17 0 534 -115
903 -201 l254 -59 46 32 c96 68 310 229 310 233 0 2 -18 46 -40 97 -76 175
-82 203 -86 403 -4 212 -14 300 -58 534 l-33 173 -104 107 c-57 58 -179 183
-271 276 l-167 170 28 65 c16 36 114 263 219 505 104 242 229 528 277 635 115
259 364 760 412 832 36 53 158 188 170 188 3 0 3 -30 0 -67 -8 -98 -53 -213
-200 -508 l-130 -260 7 -887 6 -886 339 -723 339 -722 347 -424 c236 -288 364
-436 399 -462 125 -91 440 -303 533 -359 129 -78 376 -209 473 -252 157 -69
382 -134 569 -165 126 -21 240 -16 443 19 123 22 581 138 605 155 12 7 520
623 550 666 15 22 52 170 132 530 l111 500 -105 612 -105 613 -94 192 c-51
106 -206 420 -344 698 l-250 505 -534 532 -533 531 -460 220 -460 220 -470 16
c-259 9 -495 16 -525 16 l-56 0 -155 153 c-149 145 -241 256 -373 447 -85 124
-123 185 -292 479 l-151 263 50 82 c27 44 54 86 59 93 7 9 33 -2 100 -44 l91
-56 95 104 c206 225 381 379 432 379 49 0 263 -192 653 -585 l338 -340 -116
-3 c-63 -1 -115 -6 -115 -10 0 -4 16 -55 36 -114 22 -67 41 -108 49 -108 8 0
179 -11 380 -25 201 -14 372 -22 378 -18 7 4 103 80 214 170 l202 163 -226
412 -226 413 -391 188 -392 188 -172 237 c-235 324 -325 436 -472 582 -133
132 -224 247 -339 428 -146 230 -251 441 -297 605 -42 145 -86 226 -173 312
-41 41 -76 73 -78 72 -1 -2 25 -77 57 -167 33 -91 60 -170 60 -177 0 -16 -388
-428 -404 -428 -19 0 -335 168 -336 179 0 4 50 89 112 187 l111 179 119 0 118
0 0 239 0 238 235 217 235 218 -1 166 0 167 -242 314 -242 313 -269 139 -269
139 -376 0 -376 0 -185 -200z m992 -300 l337 -309 -35 -98 c-20 -54 -36 -99
-38 -100 -1 -1 -77 99 -170 222 l-168 225 -339 177 c-186 98 -338 181 -339
186 0 4 93 7 208 7 l207 0 337 -310z m-657 -76 c59 -36 291 -216 415 -322 l35
-31 -149 -3 -148 -3 -102 113 c-151 169 -218 276 -190 305 10 9 65 -14 139
-59z m-171 -750 c19 -18 20 -28 6 -55 -20 -37 -80 -18 -80 26 0 42 44 59 74
29z m1002 -1536 c361 -366 565 -630 882 -1145 l181 -293 -122 -63 c-67 -36
-197 -103 -289 -151 l-168 -87 -256 51 c-141 29 -263 54 -271 57 -11 5 -14 1
-9 -13 3 -10 25 -106 49 -211 l44 -193 -129 -167 c-71 -93 -133 -172 -138
-177 -6 -6 -630 70 -732 90 -27 5 -28 4 -28 -38 0 -59 41 -126 141 -232 l81
-86 352 0 351 0 171 -172 c252 -256 304 -328 304 -422 l0 -56 -70 0 c-78 0
-124 14 -295 93 -380 174 -753 434 -1109 772 -156 148 -191 186 -189 206 2 13
23 220 48 460 25 240 45 448 45 462 0 20 -28 49 -146 147 -80 67 -147 120
-149 118 -2 -2 -7 -77 -11 -167 -4 -90 -10 -157 -14 -150 -4 8 -37 114 -74
236 l-66 222 55 348 c31 191 59 356 63 365 4 10 147 112 317 227 l310 210 316
1 316 0 239 -242z m-2791 -628 l59 -60 -124 0 -124 0 59 60 c33 33 62 60 65
60 3 0 32 -27 65 -60z m275 -914 l131 -777 129 -197 129 -197 88 -46 c615
-325 1029 -551 1308 -717 138 -82 473 -288 484 -298 2 -1 -20 -63 -48 -136
-28 -73 -51 -137 -51 -141 0 -4 44 -7 98 -7 115 -1 231 -20 298 -49 72 -32
174 -94 174 -107 0 -6 -175 -393 -388 -860 l-388 -849 -95 -3 -94 -3 114 115
114 114 -7 984 c-4 540 -11 986 -14 990 -4 3 -343 193 -753 422 l-746 416
-214 251 -214 251 -52 297 c-113 647 -143 889 -143 1155 0 99 2 177 5 175 2
-3 63 -355 135 -783z m1048 -8 c32 -32 -4 -87 -48 -73 -25 8 -37 50 -20 70 15
18 51 20 68 3z m3851 -134 c188 -87 371 -248 371 -326 0 -42 -41 -80 -77 -73
-126 27 -360 89 -370 99 -7 6 -28 55 -48 109 -37 104 -47 201 -23 225 17 17
58 8 147 -34z m-3861 -121 l40 -103 -42 -105 c-24 -58 -46 -109 -50 -112 -3
-4 -6 94 -6 217 0 123 4 220 8 215 5 -6 27 -56 50 -112z m-1194 -829 c-3 -149
-52 -151 -148 -4 -25 38 -46 72 -46 75 0 3 44 4 98 3 l97 -3 -1 -71z m-377
-186 c-7 -223 -17 -331 -74 -760 l-38 -288 -92 0 c-51 0 -93 4 -93 9 0 39 86
632 106 731 27 132 66 282 89 337 19 44 94 173 102 173 3 0 3 -91 0 -202z
m274 -476 l116 -208 -28 -353 c-16 -195 -29 -357 -31 -362 -2 -5 -69 40 -149
99 l-145 109 56 461 c30 254 57 462 60 462 3 0 57 -94 121 -208z m1197 -245
c141 -99 182 -133 182 -150 0 -12 -34 -275 -76 -585 l-77 -563 37 -118 c39
-126 56 -221 38 -221 -16 0 -156 153 -322 353 l-155 187 -36 203 -36 202 18
60 c174 606 225 773 234 767 5 -3 92 -64 193 -135z m2742 -137 l0 -100 -59 0
c-65 0 -117 15 -125 35 -8 22 40 73 114 121 36 23 66 43 68 43 1 1 2 -44 2
-99z m-5400 -44 c69 -15 170 -41 225 -58 124 -38 367 -126 379 -138 19 -19
-79 -549 -279 -1515 -141 -680 -236 -1109 -271 -1227 -5 -17 17 -18 370 -18
207 0 376 -3 376 -6 0 -3 25 -103 55 -222 30 -119 55 -228 55 -242 0 -14 -25
-119 -54 -233 l-53 -208 36 -23 c20 -13 52 -28 71 -34 80 -26 394 -60 1026
-112 505 -41 775 -67 807 -76 16 -5 18 -13 12 -57 -16 -122 -79 -335 -150
-508 -59 -144 -107 -234 -202 -379 l-76 -115 -321 -153 -321 -152 -91 0 c-194
0 -461 42 -638 101 -107 36 -402 184 -577 290 -224 136 -563 357 -585 381 -27
30 -726 936 -747 968 -8 14 -97 223 -197 465 -100 242 -210 508 -244 590 l-63
150 -6 130 c-3 72 -20 408 -37 747 l-32 617 178 326 179 327 305 209 305 210
220 -4 c190 -4 237 -8 345 -31z m6620 -138 l345 -103 457 -305 456 -305 436
-577 435 -577 210 -548 210 -548 10 -653 10 -653 -98 -217 c-54 -119 -131
-290 -171 -379 -40 -90 -78 -167 -84 -172 -6 -5 -167 -97 -357 -204 l-347
-194 -193 8 c-336 14 -576 74 -835 209 -235 123 -359 201 -718 454 l-228 161
-162 220 c-353 479 -519 767 -869 1507 l-134 283 -12 210 c-6 116 -25 439 -41
719 l-30 508 76 226 c108 323 187 477 228 443 61 -50 291 -478 667 -1238 l317
-641 299 -326 298 -325 3 131 3 131 -163 156 c-90 85 -213 205 -275 266 l-112
110 -435 975 -435 975 106 107 107 107 31 -47 c18 -26 168 -265 335 -532 479
-767 733 -1141 957 -1407 183 -217 267 -348 319 -500 l29 -83 63 0 c104 0 149
38 118 99 -20 37 -123 168 -195 246 -132 144 -437 590 -753 1100 -250 404
-710 1166 -706 1170 7 7 433 113 458 114 14 1 180 -45 370 -101z m-5686 -258
l89 -54 -7 -81 c-4 -44 -29 -343 -57 -665 -27 -322 -52 -627 -56 -678 l-6 -93
-142 -224 -142 -225 19 -92 c30 -146 56 -332 47 -342 -4 -4 -29 7 -56 25 -114
78 -293 211 -293 217 0 5 47 230 104 502 204 967 332 1543 376 1695 11 38 20
71 20 73 0 4 2 3 104 -58z m414 -326 c70 -59 128 -112 130 -119 2 -7 -22 -160
-52 -340 -31 -180 -56 -335 -56 -345 0 -12 116 -90 380 -256 l380 -239 0 -92
0 -93 -573 0 -573 0 18 138 c39 288 199 1418 204 1435 3 9 7 17 10 17 3 0 62
-48 132 -106z m452 -1598 c207 -30 339 -59 543 -120 62 -19 145 -44 185 -55
l72 -22 0 -126 0 -125 -87 6 c-252 19 -387 45 -933 184 l-385 97 -3 94 -3 94
253 -6 c139 -3 300 -13 358 -21z m1183 -191 l56 -90 -20 -80 c-30 -121 -67
-227 -89 -255 l-19 -25 -12 30 c-9 21 -14 115 -17 305 l-3 275 24 -35 c13 -19
49 -75 80 -125z m547 66 c0 -37 -9 -67 -37 -123 -35 -69 -201 -317 -213 -318
-3 0 -15 55 -28 123 -12 67 -33 177 -46 245 l-23 122 173 0 174 0 0 -49z m542
-257 c95 -86 181 -164 192 -174 18 -17 16 -19 -40 -56 -130 -83 -240 -114
-405 -114 l-99 0 0 78 c0 81 22 167 62 245 25 50 106 177 113 177 2 0 82 -70
177 -156z m-2127 -144 c678 -178 680 -179 674 -183 -14 -9 -432 15 -569 32
-459 59 -780 131 -855 193 l-37 31 53 53 c32 32 60 52 69 50 8 -3 308 -82 665
-176z m1174 -533 c49 -233 63 -283 83 -305 89 -98 258 -292 258 -296 0 -3 -83
-6 -186 -6 l-185 0 -14 34 c-60 143 -127 433 -144 621 -21 228 -28 196 48 243
l66 41 8 -27 c4 -15 34 -152 66 -305z m-1706 288 c468 -62 1314 -187 1322
-197 2 -3 55 -655 55 -679 0 -13 -10 -14 -87 -2 -96 13 -473 52 -1113 113
l-414 39 -95 95 -95 95 48 218 c26 120 55 248 63 286 10 44 20 67 29 67 8 0
137 -16 287 -35z m2957 -217 c0 -157 -11 -282 -25 -296 -21 -21 -242 208 -307
319 -28 47 -38 75 -38 106 l0 43 185 0 185 0 0 -172z"/>
<path d="M4460 11221 c-503 -138 -740 -234 -1079 -434 l-144 -85 -183 -343
-183 -344 36 -37 c73 -75 146 -89 186 -35 44 57 94 168 148 325 l53 154 185
126 c335 229 601 374 890 487 161 63 270 115 317 150 29 22 34 32 34 66 0 21
-3 39 -7 38 -5 0 -118 -31 -253 -68z"/>
<path d="M1360 465 l0 -84 33 -5 c186 -28 2222 -103 2072 -76 -65 12 -852 118
-1255 170 -461 58 -664 80 -762 80 l-88 0 0 -85z"/>
<path d="M8460 285 c-74 -30 -132 -54 -129 -54 4 -1 65 -14 137 -30 296 -68
487 -82 1162 -86 294 -2 528 -2 520 1 -8 2 -328 49 -710 104 -382 56 -724 105
-760 110 -36 5 -69 9 -75 9 -5 0 -71 -24 -145 -54z"/>
<path d="M1135 259 c-226 -3 -567 -7 -759 -8 -192 0 -347 -4 -344 -7 3 -3 127
-20 274 -39 428 -54 885 -87 1379 -100 116 -3 279 -8 363 -11 l152 -6 0 91 0
91 -327 -2 c-181 -1 -512 -5 -738 -9z"/>
</g>
</svg>
