<?xml version="1.0" standalone="no"?>
<!DOCTYPE svg PUBLIC "-//W3C//DTD SVG 20010904//EN"
 "http://www.w3.org/TR/2001/REC-SVG-20010904/DTD/svg10.dtd">
<svg version="1.0" xmlns="http://www.w3.org/2000/svg"
 width="1280.000000pt" height="798.000000pt" viewBox="0 0 1280.000000 798.000000"
 preserveAspectRatio="xMidYMid meet">
<metadata>
Created by potrace 1.15, written by Peter Selinger 2001-2017
</metadata>
<g transform="translate(0.000000,798.000000) scale(0.100000,-0.100000)"
fill="#000000" stroke="none">
<path d="M5499 7966 c7 -8 35 -20 64 -26 56 -13 241 -90 233 -97 -2 -2 -42 11
-87 30 -86 35 -118 44 -277 73 -145 26 -253 2 -260 -59 -2 -15 -7 -27 -12 -27
-4 0 -6 8 -3 19 6 23 -14 38 -30 22 -9 -9 -8 -17 2 -33 13 -20 12 -21 -30 -15
-24 3 -45 11 -48 18 -10 30 -52 60 -79 57 -35 -4 -44 -38 -10 -38 29 0 48 -17
41 -36 -7 -19 -43 -18 -65 3 -10 9 -20 14 -22 12 -2 -2 -47 -85 -99 -184 -79
-152 -100 -184 -134 -207 -45 -31 -74 -88 -75 -149 0 -29 -5 -39 -24 -48 -19
-9 -23 -16 -18 -40 5 -23 2 -32 -15 -43 -12 -7 -21 -23 -21 -38 0 -14 -9 -31
-20 -38 -13 -8 -20 -23 -20 -42 0 -35 -24 -49 -71 -42 l-29 4 0 144 0 144 -46
0 -47 0 8 -122 c11 -195 17 -216 72 -265 l47 -42 -72 -148 c-39 -81 -79 -168
-90 -193 -27 -62 -324 -685 -433 -907 -65 -133 -98 -189 -120 -205 -17 -13
-39 -40 -50 -60 -10 -20 -23 -39 -27 -42 -5 -3 -36 6 -69 19 -65 26 -295 95
-319 95 -25 0 -15 -41 20 -76 38 -38 61 -45 51 -14 -6 20 -5 20 43 4 16 -6 16
-7 0 -13 -34 -13 9 -42 138 -93 116 -46 138 -52 222 -55 50 -3 92 -6 92 -9 0
-3 -12 -27 -26 -55 -20 -39 -29 -49 -42 -44 -435 180 -875 259 -1247 226 -455
-41 -790 -147 -1204 -381 -252 -143 -492 -363 -736 -675 -178 -228 -315 -480
-403 -746 -108 -325 -145 -549 -146 -889 -1 -310 28 -514 114 -793 127 -411
300 -705 594 -1005 169 -173 249 -242 281 -242 16 0 26 -8 33 -29 11 -31 53
-64 211 -170 96 -65 218 -128 228 -118 3 3 -18 20 -46 37 -28 17 -60 45 -72
61 -11 16 -81 73 -156 125 -74 53 -162 119 -196 147 -152 124 -366 369 -500
572 -76 116 -235 420 -224 431 3 3 34 -52 70 -123 200 -393 411 -655 747 -926
181 -146 429 -283 665 -368 66 -23 125 -47 130 -52 16 -14 -41 3 -165 48 -122
45 -170 59 -170 50 0 -25 357 -152 520 -185 58 -12 116 -25 130 -28 l25 -5
-25 -7 c-23 -6 -21 -7 15 -14 22 -4 47 -14 56 -22 20 -18 69 -9 69 12 0 8 -5
14 -12 14 -6 0 -9 3 -6 6 7 7 50 -14 60 -29 3 -6 58 -14 122 -19 109 -9 120
-8 171 13 51 21 55 21 79 6 45 -30 162 -19 440 39 94 19 218 52 276 71 256 86
517 229 760 413 402 306 750 794 908 1273 27 81 52 151 56 154 4 4 23 -9 43
-29 l36 -36 -26 -94 c-66 -234 -74 -404 -25 -508 14 -30 36 -66 49 -79 22 -23
23 -23 30 -5 4 10 8 49 8 85 1 86 22 205 66 370 59 221 103 415 132 579 27
149 28 168 28 490 0 272 -4 356 -18 445 -82 511 -270 940 -597 1365 -116 151
-382 410 -545 530 -77 57 -142 105 -143 106 -2 1 6 16 18 32 12 16 36 62 53
103 18 41 39 75 48 77 9 2 35 -23 64 -60 27 -35 169 -214 315 -398 147 -184
374 -477 505 -650 131 -173 286 -373 345 -445 340 -415 983 -1246 1006 -1302
7 -17 19 -64 25 -103 12 -71 12 -73 -12 -91 -41 -32 -136 -79 -158 -79 -11 0
-41 -10 -65 -22 -43 -21 -45 -21 -72 -4 -47 32 -79 36 -112 16 -16 -10 -33
-23 -36 -29 -4 -6 -35 -11 -70 -11 -35 0 -78 -5 -96 -11 l-32 -12 7 -111 c10
-158 18 -175 82 -196 49 -16 85 -37 154 -92 24 -18 31 -19 63 -8 21 7 51 29
72 56 41 50 66 55 82 19 13 -29 54 -42 91 -29 41 15 52 65 41 181 -5 53 -6
101 -3 106 3 5 42 37 86 72 l80 64 66 -61 c76 -71 154 -110 265 -133 78 -16
81 -15 185 9 58 14 129 28 158 32 l52 6 34 -74 c19 -41 53 -94 76 -119 l43
-44 29 33 c33 37 35 62 14 141 -16 60 -13 71 15 71 24 0 28 -7 85 -170 161
-457 375 -810 658 -1087 153 -149 251 -229 397 -325 115 -76 385 -213 495
-252 75 -27 205 -59 211 -53 2 2 -60 27 -138 56 -193 70 -402 175 -563 282
-74 49 -137 94 -141 100 -9 15 -11 16 128 -78 191 -129 517 -278 758 -347 52
-15 99 -32 104 -36 5 -5 -8 -5 -28 1 -49 14 -59 4 -15 -15 19 -9 30 -15 24
-16 -17 -1 19 -20 38 -20 10 0 25 6 32 14 8 7 33 16 57 20 23 4 46 12 50 19 6
9 8 9 8 0 0 -10 28 -13 103 -14 64 -1 89 -4 67 -8 -28 -5 -18 -8 50 -14 119
-10 162 -9 155 3 -4 6 19 10 63 10 38 0 91 3 118 6 36 4 45 3 34 -5 -11 -8 1
-11 49 -11 139 0 427 58 616 124 112 39 363 152 426 191 22 15 43 24 45 22 13
-13 -259 -150 -446 -225 -93 -38 -51 -39 56 -2 153 54 454 218 606 332 105 79
402 374 500 498 80 101 194 269 245 360 143 258 277 746 299 1090 6 81 4 97
-10 109 -21 17 -22 53 -1 45 12 -5 15 3 15 35 0 30 -4 41 -15 41 -20 0 -19 35
1 69 13 22 14 36 6 72 l-10 44 -1 -40 c-3 -69 -18 -18 -36 120 -17 138 -35
218 -42 198 -3 -7 -8 -13 -12 -13 -11 0 -36 119 -27 127 3 3 6 -1 6 -10 0 -9
14 -30 30 -47 17 -17 30 -40 30 -50 0 -11 4 -20 9 -20 12 0 6 45 -21 161 -19
88 -47 146 -48 104 -1 -31 -16 1 -24 50 -5 35 -4 37 6 15 9 -20 12 -22 15 -8
15 62 -200 534 -333 729 -87 127 -355 408 -523 549 -94 78 -108 97 -91 114 16
16 143 -78 275 -204 66 -64 151 -144 189 -179 69 -63 69 -63 121 -59 49 4 115
37 115 58 0 5 -20 23 -44 39 -24 17 -113 95 -198 172 -534 494 -905 686 -1543
800 -116 21 -159 24 -400 23 -290 -1 -338 -6 -600 -63 -283 -62 -615 -190
-836 -322 -64 -38 -123 -69 -132 -69 -10 0 -36 32 -64 76 -57 91 -288 438
-363 546 -62 90 -60 102 23 113 69 9 97 28 97 64 0 55 -28 74 -117 80 -44 3
-87 12 -96 19 -21 18 -26 60 -36 298 -11 258 -18 273 -147 320 -69 25 -114 57
-101 71 4 4 34 9 66 11 54 4 59 2 64 -18 6 -22 9 -23 73 -16 78 8 84 11 84 36
0 22 -18 30 -78 32 -38 1 -41 2 -12 5 122 11 140 15 140 28 0 8 -9 17 -20 20
-11 3 -20 11 -20 17 0 7 47 9 149 6 191 -6 252 2 306 41 23 16 66 41 96 54
125 55 200 221 169 371 -21 100 -86 153 -180 144 -55 -6 -55 -6 -39 24 9 16 7
24 -10 42 -12 13 -21 36 -21 53 0 24 -9 38 -37 61 l-37 30 47 28 c55 34 69 65
41 96 -18 20 -25 20 -199 14 -99 -4 -234 -11 -300 -16 -66 -5 -228 -10 -360
-10 -132 -1 -374 -5 -537 -9 -294 -8 -298 -9 -352 -35 -59 -29 -116 -85 -116
-115 0 -41 90 -86 193 -96 l67 -7 0 -83 c0 -79 1 -84 36 -129 20 -26 41 -45
47 -43 7 2 16 18 22 35 5 18 17 34 26 37 18 6 29 34 29 79 l0 30 36 -43 c43
-50 99 -87 167 -111 l48 -17 -35 -21 c-63 -37 -97 -152 -65 -215 18 -34 81
-98 108 -108 l25 -10 -30 -20 c-50 -33 -114 -47 -190 -42 -77 6 -114 -6 -114
-36 0 -10 -9 -21 -20 -24 -26 -7 -28 -65 -2 -74 9 -3 25 -15 34 -27 15 -18 26
-21 84 -18 49 1 70 7 79 19 8 11 35 19 81 24 81 9 224 11 224 4 0 -3 -6 -21
-14 -39 -16 -38 -41 -46 -137 -46 -57 0 -59 -1 -61 -27 -2 -43 2 -67 13 -78 5
-5 49 -13 96 -16 85 -5 86 -6 124 -47 34 -35 39 -48 39 -87 0 -39 3 -47 25
-55 28 -11 30 -18 14 -54 -7 -14 -9 -40 -5 -61 9 -44 38 -61 79 -46 23 9 27
16 27 49 0 26 -7 45 -20 57 -28 25 -25 41 10 54 29 10 30 12 30 71 0 45 4 62
15 66 9 4 15 19 15 35 0 22 5 29 20 29 29 0 57 -36 71 -93 12 -51 6 -284 -9
-372 l-7 -40 -65 -8 c-82 -9 -3246 -14 -3255 -5 -13 12 3 53 36 94 18 21 54
85 81 142 46 96 48 104 33 125 -8 12 -15 32 -15 45 0 12 -7 25 -16 29 -17 6
-92 -31 -111 -56 -29 -37 -10 18 53 152 61 132 94 188 94 160 0 -16 68 -56 85
-49 21 8 67 86 61 102 -3 8 -21 24 -41 35 -21 13 -35 29 -35 41 0 11 -8 22
-20 25 -11 3 -20 9 -20 13 0 8 347 741 355 748 7 8 185 -112 200 -134 8 -12
40 -32 72 -44 66 -25 69 -26 303 -175 96 -61 252 -158 345 -215 249 -152 329
-207 440 -307 107 -96 140 -119 150 -103 15 24 -100 213 -174 284 -43 42 -62
42 -43 0 15 -31 9 -28 -68 36 -86 71 -200 148 -385 260 -262 160 -515 332
-496 338 13 4 138 -56 251 -122 125 -73 454 -240 505 -256 50 -15 187 -89 283
-151 69 -45 166 -89 197 -89 24 0 38 40 32 92 -9 72 -62 163 -143 245 -71 71
-72 72 -67 117 5 38 0 58 -27 114 -48 97 -177 223 -288 280 -46 23 -90 42 -97
42 -32 0 -69 -47 -74 -93 l-6 -47 -85 52 c-138 84 -432 208 -491 208 -17 0
-19 -3 -10 -14z m11 -138 c52 -11 132 -34 177 -50 80 -27 384 -158 468 -200
50 -26 121 -82 142 -115 18 -28 34 -111 22 -118 -19 -12 -551 243 -729 350
-58 35 -138 82 -177 104 -114 66 -96 71 97 29z m-599 -65 c-34 -66 -54 -84
-30 -28 11 27 25 55 31 62 20 24 20 5 -1 -34z m1022 16 c83 -42 179 -100 174
-106 -3 -2 -60 28 -128 67 -130 74 -149 90 -46 39z m-894 2 c20 -11 42 -26 49
-33 8 -11 -33 -101 -185 -402 l-197 -388 -45 6 c-54 7 -62 14 -38 30 9 7 17
23 17 35 0 12 7 24 15 27 10 4 15 20 15 45 0 32 4 39 19 39 23 0 35 31 27 64
-4 18 0 26 19 34 27 13 32 31 13 50 -10 10 -8 14 9 18 23 6 63 64 63 90 0 8
-9 14 -20 14 -21 0 -27 15 -10 25 5 3 48 83 95 178 73 146 97 186 113 187 1 0
20 -9 41 -19z m3516 -12 c5 -5 -4 -9 -22 -9 -20 0 -37 -7 -46 -20 -8 -11 -31
-22 -58 -26 -24 -4 -60 -15 -81 -25 -21 -11 -76 -22 -136 -28 -94 -9 -142 -22
-142 -39 0 -5 -17 -8 -37 -9 -21 0 -60 -5 -88 -11 -76 -15 -533 -25 -574 -13
-19 6 -37 7 -40 2 -9 -12 -68 -41 -86 -41 -8 0 -15 -4 -15 -10 0 -5 14 -10 31
-10 17 0 28 -4 24 -10 -3 -5 -20 -10 -36 -10 -24 0 -41 12 -80 54 -56 61 -124
108 -205 141 -62 25 -54 36 15 22 25 -5 73 -10 107 -12 33 -1 73 -5 88 -9 22
-5 27 -4 24 11 -3 16 4 18 77 13 44 -3 103 -4 130 -3 437 16 501 16 549 -5 28
-13 53 -33 64 -51 9 -17 21 -31 25 -31 14 0 19 28 7 50 -9 16 -8 25 2 37 7 9
12 24 10 34 -3 17 0 17 33 -4 20 -12 51 -34 70 -49 38 -33 45 -33 91 -12 38
18 44 34 14 34 -11 0 -20 5 -20 10 0 6 23 10 51 10 28 0 65 7 82 14 54 25 147
27 172 5z m-3483 -196 c-249 -498 -325 -644 -330 -639 -3 4 86 189 198 414
111 224 205 401 207 395 3 -7 -31 -84 -75 -170z m413 154 c27 -13 45 -26 39
-30 -10 -6 -114 37 -114 48 0 10 26 4 75 -18z m2735 -20 c0 -4 -9 -3 -20 3
-11 6 -20 15 -20 20 0 6 9 5 20 -2 11 -7 20 -16 20 -21z m-1860 -47 c0 -5 -4
-10 -9 -10 -16 0 -23 -38 -11 -62 7 -16 1 -12 -20 12 -16 19 -30 37 -30 41 0
4 12 12 28 17 36 14 42 14 42 2z m-1514 -26 c-4 -9 -9 -15 -11 -12 -3 3 -3 13
1 22 4 9 9 15 11 12 3 -3 3 -13 -1 -22z m3728 -13 c10 -11 15 -25 11 -30 -10
-16 -42 -13 -49 5 -17 44 7 60 38 25z m-94 -4 c0 -7 9 -29 20 -50 21 -38 25
-73 12 -94 -8 -13 -139 -36 -154 -27 -4 3 -8 28 -8 56 0 34 -6 58 -17 70 -9
10 -14 20 -12 22 4 4 126 33 147 35 6 0 12 -5 12 -12z m-213 -62 c13 -9 23
-24 21 -33 -3 -14 -20 -18 -93 -23 -50 -3 -102 -9 -116 -13 -20 -6 -28 -3 -33
10 -10 25 19 49 79 68 57 18 106 14 142 -9z m-337 -5 c0 -5 -2 -10 -4 -10 -3
0 -8 5 -11 10 -3 6 -1 10 4 10 6 0 11 -4 11 -10z m-2379 -39 c13 -11 21 -22
18 -26 -4 -3 -20 5 -35 19 -34 29 -18 35 17 7z m2109 9 c0 -5 -5 -10 -11 -10
-5 0 -7 5 -4 10 3 6 8 10 11 10 2 0 4 -4 4 -10z m214 -11 c-3 -5 -10 -7 -15
-3 -5 3 -7 10 -3 15 3 5 10 7 15 3 5 -3 7 -10 3 -15z m734 -13 c2 -10 -1 -23
-6 -28 -12 -12 -36 27 -27 43 10 15 29 5 33 -15z m-618 0 c6 -8 10 -25 8 -38
-2 -19 -10 -24 -42 -26 -37 -3 -96 13 -96 27 0 10 81 50 101 50 9 1 22 -6 29
-13z m-1930 -71 c80 -37 170 -78 200 -92 93 -43 37 -37 -66 7 -131 56 -291
137 -300 151 -9 15 -20 19 166 -66z m-1280 61 c0 -3 -4 -8 -10 -11 -5 -3 -10
-1 -10 4 0 6 5 11 10 11 6 0 10 -2 10 -4z m2533 -3 c-7 -2 -21 -2 -30 0 -10 3
-4 5 12 5 17 0 24 -2 18 -5z m507 -3 c0 -16 -47 -30 -98 -29 l-47 2 45 6 c25
4 54 12 65 19 25 14 35 15 35 2z m470 -58 c0 -34 -84 -62 -183 -62 l-68 0 3
28 3 27 100 6 c55 3 110 6 123 7 12 1 22 -2 22 -6z m460 -12 c4 -8 14 -30 24
-49 16 -33 13 -61 -4 -31 -18 31 -36 48 -56 54 -17 5 -28 -8 -75 -88 -54 -95
-78 -123 -39 -47 25 49 41 91 36 91 -7 0 -103 -171 -137 -243 -25 -55 -30 -76
-25 -107 3 -21 2 -41 -3 -44 -13 -9 -21 19 -21 74 0 56 22 164 28 138 2 -10 8
-18 13 -18 17 0 67 120 74 177 2 16 21 44 49 71 41 39 50 43 88 40 24 -2 44
-9 48 -18z m-874 -15 c26 -14 65 -28 86 -31 54 -9 65 -27 32 -53 -15 -12 -34
-21 -43 -21 -23 0 -49 21 -53 43 -6 33 -23 23 -26 -15 -3 -34 0 -40 33 -59
l36 -22 -38 -21 c-42 -24 -52 -51 -33 -96 8 -19 9 -34 2 -46 -6 -11 -6 -27 0
-46 7 -20 7 -37 -2 -57 -20 -49 7 -77 94 -96 51 -11 9 -25 -77 -25 -74 0 -78
1 -87 25 -8 22 -15 25 -60 25 -57 0 -90 -13 -90 -36 0 -8 -12 -19 -26 -24 -34
-13 -214 -13 -214 0 0 14 111 68 176 85 110 28 158 76 169 168 10 78 -9 123
-70 164 -27 19 -62 37 -77 40 -41 8 -34 20 20 32 26 7 79 30 117 51 39 22 73
39 77 40 4 0 28 -11 54 -25z m-1379 -35 c44 -22 61 -35 57 -45 -8 -21 -18 -19
-53 11 -17 14 -43 29 -58 33 -28 7 -44 31 -21 31 7 0 41 -14 75 -30z m-112
-28 c-8 -9 -25 20 -18 31 3 5 10 2 15 -7 6 -10 7 -20 3 -24z m2110 -47 c-19
-32 -35 -52 -35 -44 0 20 63 126 67 113 2 -6 -12 -37 -32 -69z m-2689 50 c10
-8 14 -15 8 -15 -5 0 -19 7 -30 15 -10 8 -14 15 -8 15 5 0 19 -7 30 -15z
m2929 -5 c-3 -5 -11 -10 -16 -10 -6 0 -7 5 -4 10 3 6 11 10 16 10 6 0 7 -4 4
-10z m-497 -36 c37 -7 21 -27 -38 -47 -75 -25 -149 -27 -164 -4 -33 51 72 78
202 51z m-1603 -25 c14 -22 -3 -18 -26 7 -23 25 -23 26 -2 15 12 -6 25 -16 28
-22z m975 -9 c-8 -5 -35 -10 -60 -10 -40 0 -51 -5 -84 -39 -20 -21 -43 -58
-51 -82 -7 -24 -14 -35 -14 -24 -2 41 20 90 56 127 36 36 40 38 103 38 45 0
61 -3 50 -10z m1058 -45 c-12 -25 -23 -43 -24 -42 -2 1 0 20 3 43 4 29 10 40
24 41 17 2 17 -1 -3 -42z m-1008 15 c0 -5 -2 -10 -4 -10 -3 0 -8 5 -11 10 -3
6 -1 10 4 10 6 0 11 -4 11 -10z m851 -17 c-8 -15 -10 -15 -11 -2 0 17 10 32
18 25 2 -3 -1 -13 -7 -23z m-864 -12 c38 -24 49 -64 32 -121 -17 -57 -50 -80
-111 -80 -60 0 -83 11 -103 50 -26 50 -20 97 19 136 29 29 41 34 83 34 30 0
60 -7 80 -19z m353 2 c0 -5 -13 -23 -29 -42 -21 -26 -32 -32 -49 -27 -35 11
-26 35 21 56 46 21 57 24 57 13z m214 -36 c16 -12 16 -14 2 -27 -19 -15 -151
-26 -192 -16 -25 7 -26 8 -11 23 29 29 170 43 201 20z m-2110 -13 c23 -9 20
-23 -4 -17 -11 3 -20 9 -20 14 0 11 3 11 24 3z m2601 -80 c-36 -62 -44 -48 -8
15 15 28 30 46 31 41 2 -6 -8 -31 -23 -56z m-2100 6 c3 -5 2 -10 -4 -10 -5 0
-13 5 -16 10 -3 6 -2 10 4 10 5 0 13 -4 16 -10z m1342 -11 c9 -9 26 -9 65 -2
67 13 168 5 175 -14 9 -23 -27 -52 -74 -59 -51 -8 -74 6 -53 31 21 26 2 30
-24 6 -23 -22 -26 -22 -48 -7 -12 9 -35 16 -50 16 -31 0 -47 18 -27 31 18 11
23 11 36 -2z m36 -84 c13 -8 53 -19 91 -24 80 -11 89 -17 52 -31 -59 -22 -139
-7 -151 29 -9 30 -23 26 -27 -6 -4 -35 -38 -46 -38 -12 0 23 26 59 42 59 5 0
19 -7 31 -15z m-1576 -48 c13 -11 21 -22 19 -25 -7 -6 -96 60 -96 71 0 11 44
-15 77 -46z m-1717 -38 c0 -6 -4 -7 -10 -4 -5 3 -10 11 -10 16 0 6 5 7 10 4 6
-3 10 -11 10 -16z m3555 11 c8 -13 -15 -13 -35 0 -12 8 -11 10 7 10 12 0 25
-4 28 -10z m-1759 -38 c-4 -3 -14 2 -24 12 -16 18 -16 18 6 6 13 -6 21 -14 18
-18z m1234 -16 c0 -11 -19 -15 -25 -6 -3 5 1 10 9 10 9 0 16 -2 16 -4z m-3170
-33 c14 -9 26 -17 28 -19 8 -6 -142 -292 -167 -319 -38 -39 -68 -100 -87 -177
-18 -70 -50 -144 -188 -436 -104 -221 -115 -241 -147 -257 -19 -11 -54 -80
-81 -162 -6 -17 -22 -36 -35 -42 -13 -6 -26 -18 -29 -26 -8 -21 -25 -19 -17 3
9 26 441 945 564 1202 60 124 109 231 109 237 0 18 21 16 50 -4z m100 7 c0 -5
-4 -10 -10 -10 -5 0 -10 5 -10 10 0 6 5 10 10 10 6 0 10 -4 10 -10z m-205 -10
c-3 -5 -11 -10 -16 -10 -6 0 -7 5 -4 10 3 6 11 10 16 10 6 0 7 -4 4 -10z
m2968 -27 c-7 -2 -21 -2 -30 0 -10 3 -4 5 12 5 17 0 24 -2 18 -5z m-2783 -43
c0 -5 -4 -10 -10 -10 -5 0 -10 5 -10 10 0 6 5 10 10 10 6 0 10 -4 10 -10z
m-237 -20 c-5 -19 -23 -39 -23 -25 0 9 20 45 24 45 2 0 2 -9 -1 -20z m3345
-120 c3 -48 1 -70 -7 -70 -17 0 -28 37 -36 115 l-7 70 23 -22 c19 -19 24 -36
27 -93z m-153 20 c-45 -11 -115 -11 -115 0 0 6 30 10 73 9 54 -1 65 -3 42 -9z
m425 -100 c0 -13 -1 -13 -10 0 -5 8 -10 22 -10 30 0 13 1 13 10 0 5 -8 10 -22
10 -30z m-3510 -34 c0 -3 -4 -8 -10 -11 -5 -3 -10 -1 -10 4 0 6 5 11 10 11 6
0 10 -2 10 -4z m3256 -71 c-4 -14 -11 -23 -16 -20 -12 7 -13 68 -3 79 12 12
26 -31 19 -59z m273 -92 c-1 -86 -4 -127 -9 -108 -14 53 -9 245 6 245 2 0 3
-62 3 -137z m-3305 49 c2 -4 0 -14 -5 -22 -8 -13 -10 -13 -19 0 -5 8 -10 18
-10 23 0 10 28 9 34 -1z m-74 -112 c-7 -17 -15 -28 -18 -26 -2 3 1 19 8 36 7
17 15 28 18 26 2 -3 -1 -19 -8 -36z m3116 -27 c-6 -14 -9 -15 -16 -4 -11 19
-1 46 13 32 5 -5 7 -18 3 -28z m-3195 -52 c13 -11 20 -23 16 -27 -4 -5 -12 -3
-16 4 -6 10 -12 7 -23 -10 -19 -30 -55 -122 -69 -177 -7 -30 -13 -40 -19 -31
-6 10 -11 8 -19 -9 -10 -17 -9 -21 4 -21 8 0 15 -3 15 -6 0 -16 -24 -46 -41
-52 -13 -5 -41 -56 -84 -151 -76 -170 -89 -191 -115 -191 -11 0 -20 2 -20 4 0
16 42 112 156 354 74 155 136 293 140 307 8 31 41 33 75 6z m-246 -36 c-8 -21
-18 -36 -21 -33 -3 3 2 23 11 43 8 21 18 36 21 33 3 -3 -2 -23 -11 -43z m-152
-318 c-61 -124 -116 -228 -123 -232 -7 -5 -11 -4 -8 1 2 5 55 112 117 237 63
125 116 225 119 223 2 -3 -45 -106 -105 -229z m3840 149 c-1 -16 -4 -30 -6
-33 -3 -2 -24 6 -48 19 -40 21 -42 23 -19 26 14 2 29 8 35 13 19 18 40 4 38
-25z m-1998 5 c10 -4 -97 -11 -240 -14 -315 -8 -1121 -9 -1113 -1 16 16 1313
30 1353 15z m519 -12 c6 -5 -52 -9 -150 -9 -169 0 -314 9 -314 19 0 10 454 0
464 -10z m1261 11 c-75 -12 -333 -12 -315 0 8 5 92 9 190 9 123 -1 160 -4 125
-9z m521 -15 c-3 -9 -11 -13 -16 -10 -8 5 -7 11 1 21 14 18 24 11 15 -11z
m-1199 9 c-3 -3 -12 -4 -19 -1 -8 3 -5 6 6 6 11 1 17 -2 13 -5z m116 -1 c-7
-2 -19 -2 -25 0 -7 3 -2 5 12 5 14 0 19 -2 13 -5z m154 1 c-3 -3 -12 -4 -19
-1 -8 3 -5 6 6 6 11 1 17 -2 13 -5z m-2788 -76 c-7 -13 -14 -18 -16 -11 -3 7
1 22 8 35 7 13 14 18 16 11 3 -7 -1 -22 -8 -35z m-608 -25 c-12 -20 -14 -14
-5 12 4 9 9 14 11 11 3 -2 0 -13 -6 -23z m3964 -35 c3 -24 10 -120 15 -215 6
-109 14 -184 24 -207 18 -43 54 -56 91 -32 23 15 25 22 25 99 0 45 3 105 6
134 l7 51 85 -141 c46 -78 98 -161 114 -185 16 -23 64 -98 107 -166 l78 -125
-191 -193 c-212 -213 -356 -376 -421 -477 -47 -74 -158 -281 -222 -417 -79
-165 -154 -376 -207 -583 -46 -180 -56 -208 -77 -218 -15 -8 -71 -13 -154 -13
-151 0 -239 -12 -301 -42 -72 -33 -193 -145 -249 -229 l-50 -76 -160 199 c-88
110 -220 273 -293 361 -114 139 -437 551 -505 646 -45 62 -215 280 -328 421
-127 159 -848 1112 -879 1163 -25 41 -25 83 0 150 31 84 40 88 182 98 252 16
1464 33 2555 37 l742 2 6 -42z m180 -88 c3 -5 1 -10 -4 -10 -6 0 -11 5 -11 10
0 6 2 10 4 10 3 0 8 -4 11 -10z m-4201 -15 c-4 -8 -10 -15 -15 -15 -4 0 -6 7
-3 15 4 8 10 15 15 15 4 0 6 -7 3 -15z m4094 -215 l-1 -75 -7 55 c-5 30 -8 89
-8 130 l1 75 7 -55 c5 -30 8 -89 8 -130z m173 125 c8 -16 6 -15 -10 4 -12 13
-21 28 -21 35 0 12 14 -5 31 -39z m-3596 -322 c88 -115 253 -331 366 -479 208
-271 337 -451 265 -369 -65 75 -460 588 -626 813 -36 49 -83 111 -106 138 -62
75 -90 117 -73 112 8 -2 86 -99 174 -215z m5430 187 c-27 -5 -66 -8 -85 -8
l-35 0 30 8 c17 4 55 8 85 7 l55 0 -50 -7z m239 1 c4 -5 0 -11 -6 -14 -18 -5
-48 3 -48 14 0 12 47 12 54 0z m207 -1 c10 -6 19 -15 19 -20 0 -16 -34 -12
-81 10 l-44 20 43 0 c24 0 52 -5 63 -10z m-6096 -20 c-3 -5 -11 -10 -16 -10
-6 0 -7 5 -4 10 3 6 11 10 16 10 6 0 7 -4 4 -10z m-385 -4 c0 -3 -4 -8 -10
-11 -5 -3 -10 -1 -10 4 0 6 5 11 10 11 6 0 10 -2 10 -4z m6834 -41 c100 -24
236 -63 302 -86 181 -62 358 -149 304 -149 -5 0 -10 5 -10 11 0 5 -5 7 -11 3
-6 -3 -14 -2 -18 3 -3 5 -43 21 -88 36 -45 14 -127 47 -181 72 -55 25 -105 45
-113 45 -29 0 -342 80 -354 90 -8 7 -23 9 -35 5 -11 -4 -20 -2 -20 4 0 18 32
13 224 -34z m-294 0 c302 -42 645 -150 880 -276 84 -45 110 -66 110 -86 0 -22
-26 -15 -118 31 -115 58 -281 128 -378 161 -367 123 -854 165 -1210 105 -387
-66 -675 -170 -933 -336 -79 -52 -107 -65 -119 -57 -9 5 -17 14 -19 20 -5 15
200 144 322 203 90 43 522 200 552 200 6 0 24 5 40 12 100 43 630 57 873 23z
m-1095 -39 c-55 -25 -115 -42 -102 -30 14 14 111 52 132 53 11 0 -2 -10 -30
-23z m-5515 -45 c0 -10 -30 -24 -37 -17 -3 3 -2 9 2 15 8 13 35 15 35 2z
m6159 5 c-2 -2 -60 -6 -129 -8 -69 -3 -102 -2 -75 2 53 7 211 12 204 6z m-814
-21 c-16 -8 -37 -19 -45 -24 -27 -16 -110 -51 -121 -51 -6 0 -25 -11 -42 -24
-41 -31 -208 -118 -214 -112 -10 10 9 25 75 62 99 56 334 163 357 163 15 0 13
-3 -10 -14z m1358 -5 c20 -8 19 -9 -8 -9 -16 1 -61 7 -100 15 l-70 14 78 -6
c43 -3 88 -9 100 -14z m-6912 1 c-12 -8 -12 -12 -2 -25 11 -13 11 -16 -3 -16
-10 0 -16 9 -16 25 0 17 5 25 18 25 14 0 14 -2 3 -9z m6554 -1 c-7 -12 -89
-12 -125 0 -17 6 -1 8 53 9 50 1 76 -3 72 -9z m-6779 -25 c90 -30 184 -76 167
-82 -7 -3 -41 6 -75 20 -35 13 -91 34 -126 47 -63 23 -87 40 -57 40 9 0 50
-11 91 -25z m6871 19 c-3 -3 -12 -4 -19 -1 -8 3 -5 6 6 6 11 1 17 -2 13 -5z
m-643 -19 c-5 -11 1 -15 22 -16 16 -1 -11 -10 -60 -20 -49 -10 -91 -17 -93
-15 -2 2 15 11 39 20 l43 16 -57 -5 c-31 -3 -65 -8 -75 -11 -16 -5 -16 -4 -2
5 13 8 125 33 181 40 4 1 5 -6 2 -14z m1101 -12 c154 -37 405 -129 405 -148 0
-3 -17 2 -37 11 -77 34 -234 85 -363 119 -131 34 -182 53 -105 40 22 -4 67
-14 100 -22z m-275 7 c0 -5 -5 -10 -11 -10 -5 0 -7 5 -4 10 3 6 8 10 11 10 2
0 4 -4 4 -10z m-6706 -20 c7 -7 -1 -10 -21 -10 -40 0 -65 9 -57 22 7 11 63 3
78 -12z m6861 -1 c13 -6 0 -7 -40 -3 -33 4 -62 8 -64 10 -9 8 85 2 104 -7z
m-7685 -24 c162 -21 323 -57 457 -102 115 -38 259 -100 251 -108 -2 -3 -24 4
-47 16 -60 29 -287 103 -407 134 -182 45 -284 57 -566 62 -176 4 -266 9 -261
16 9 15 423 2 573 -18z m7784 5 c7 0 21 -7 32 -15 17 -13 15 -13 -21 -4 -22 6
-44 16 -50 21 -7 8 -4 9 8 4 10 -3 24 -6 31 -6z m-1354 -14 c-19 -8 -68 -24
-108 -36 -81 -25 -312 -135 -412 -197 -80 -49 -110 -65 -110 -59 0 12 218 141
314 186 112 53 296 119 331 119 13 0 7 -5 -15 -13z m-5576 -33 c-24 -57 -37
-64 -18 -10 9 26 20 47 24 47 5 0 2 -17 -6 -37z m341 27 c3 -5 1 -10 -4 -10
-6 0 -11 5 -11 10 0 6 2 10 4 10 3 0 8 -4 11 -10z m-1987 -10 c-15 -4 -51 -10
-80 -13 l-53 -6 50 14 c28 7 64 13 80 13 l30 0 -27 -8z m657 0 l50 -7 -65 -1
c-36 0 -105 3 -155 7 l-90 8 105 1 c58 0 128 -3 155 -8z m6615 -10 c-30 -9
-71 -20 -90 -23 -55 -10 -12 11 57 27 80 20 99 18 33 -4z m-7042 3 c-10 -2
-28 -2 -40 0 -13 2 -5 4 17 4 22 1 32 -1 23 -4z m1337 -3 c-45 -12 -97 -12
-90 0 3 6 32 9 63 9 47 -1 52 -3 27 -9z m7140 0 l20 -9 -20 0 c-11 0 -27 4
-35 9 -13 9 -13 10 0 9 8 0 24 -4 35 -9z m-8628 -6 c-3 -3 -12 -4 -19 -1 -8 3
-5 6 6 6 11 1 17 -2 13 -5z m795 -13 c4 -3 -10 -5 -32 -3 -22 2 -43 9 -47 14
-7 12 67 2 79 -11z m7388 9 c127 -16 389 -76 525 -121 129 -43 403 -171 411
-192 3 -8 -85 -146 -195 -308 -110 -162 -293 -433 -406 -602 -389 -582 -684
-997 -711 -997 -20 0 -27 44 -14 87 7 21 32 93 56 160 49 138 139 430 148 483
13 74 -35 -53 -115 -309 -83 -264 -119 -351 -144 -351 -8 0 -33 26 -57 57 -83
113 -526 781 -658 993 -73 118 -196 312 -273 430 -163 250 -167 258 -160 277
6 15 87 72 173 121 148 83 468 203 630 236 67 13 199 30 315 39 98 8 398 6
475 -3z m-8521 -46 c-11 -13 -9 -15 12 -10 13 3 42 8 64 11 22 3 49 9 60 12
13 3 16 2 10 -4 -17 -17 -179 -47 -183 -34 -2 6 -10 11 -18 11 -8 0 -14 4 -14
9 0 11 23 18 59 20 20 1 22 -1 10 -15z m1349 -8 c90 -23 122 -36 91 -36 -32 0
-219 59 -189 59 3 1 47 -10 98 -23z m6012 10 c0 -7 -101 -38 -106 -33 -3 3 14
12 38 20 44 16 68 20 68 13z m1818 -17 c42 -16 22 -18 -23 -2 -25 8 -45 17
-45 20 0 4 25 -2 68 -18z m431 5 c2 -2 2 -6 -1 -9 -9 -9 -58 6 -58 17 0 9 49
3 59 -8z m-8549 -44 c154 -26 362 -77 496 -123 112 -38 144 -53 144 -67 0 -16
-221 -445 -280 -545 -29 -49 -55 -84 -58 -76 -4 11 19 105 35 148 3 7 1 13 -4
13 -6 0 -15 -17 -21 -37 -7 -21 -24 -60 -40 -87 -25 -46 -34 -53 -119 -90 -50
-23 -106 -53 -123 -69 l-32 -27 24 -48 c17 -34 30 -48 48 -50 37 -6 50 -21 50
-58 0 -40 -99 -193 -210 -324 -103 -122 -260 -290 -271 -290 -5 0 -9 89 -10
208 -1 114 -4 245 -8 292 -6 60 -8 -6 -10 -220 l-1 -305 -93 -66 c-50 -37
-119 -81 -151 -100 -70 -39 -46 -61 -193 176 -140 225 -394 608 -400 602 -8
-8 20 -55 200 -333 96 -148 198 -311 227 -363 l53 -94 -27 -24 c-33 -28 -50
-29 -85 -4 -14 10 -175 96 -356 191 -182 95 -469 250 -640 345 -324 180 -526
285 -547 285 -32 -1 47 -47 587 -337 396 -214 905 -483 957 -505 30 -14 34
-28 18 -59 -15 -27 11 -73 61 -106 30 -20 68 -67 134 -168 51 -77 102 -160
114 -183 22 -42 22 -44 2 -37 -38 12 -38 -50 1 -128 10 -20 25 -37 33 -37 21
0 19 24 -4 44 -10 10 -21 26 -24 38 -4 14 6 8 31 -20 21 -22 50 -44 65 -47 53
-14 143 46 162 105 6 19 9 19 45 -13 21 -18 87 -61 147 -97 59 -35 232 -143
383 -240 151 -97 286 -183 300 -190 51 -27 0 19 -95 85 -91 63 -469 305 -615
393 -109 66 -112 69 -95 101 7 14 32 44 54 65 l41 40 117 -37 c65 -21 125 -37
133 -36 18 1 -78 49 -99 49 -21 0 -131 52 -131 61 0 14 62 11 116 -6 62 -19
104 -19 104 -1 0 16 -30 26 -77 26 -89 0 -1 55 119 74 55 8 68 14 70 30 2 12
26 33 63 54 199 114 172 115 -48 2 -97 -49 -183 -90 -192 -90 -8 0 -38 -12
-66 -26 -28 -14 -52 -24 -53 -22 -2 2 -16 26 -32 55 l-29 52 18 48 c18 47 18
48 -3 65 -26 21 -26 24 10 32 37 7 47 29 32 69 -10 27 -9 30 18 40 23 9 30 18
30 39 0 18 -5 28 -15 28 -21 0 -19 19 3 26 9 3 30 12 46 20 24 12 31 12 45 1
9 -7 45 -28 81 -46 36 -18 144 -83 240 -144 96 -60 456 -279 800 -485 747
-448 779 -468 787 -502 14 -57 -63 -267 -198 -540 -133 -267 -262 -443 -480
-655 -211 -205 -384 -327 -663 -466 -269 -134 -524 -200 -846 -220 -401 -25
-710 17 -1080 148 -167 59 -211 81 -353 170 -198 126 -314 218 -473 377 -226
227 -352 395 -478 636 -163 315 -237 594 -267 1006 -15 210 -1 375 51 635 60
297 90 385 209 619 160 316 410 627 671 837 201 161 534 345 756 419 160 53
282 78 479 98 83 9 166 18 185 20 89 10 381 -3 500 -24z m1097 -15 c-6 -19
-45 -17 -56 3 -6 11 -8 22 -5 25 9 8 64 -17 61 -28z m-2291 -1 c-74 -26 -104
-31 -71 -12 11 6 22 15 25 19 5 7 49 15 95 17 11 0 -11 -10 -49 -24z m1696 -6
c37 -12 68 -25 68 -29 0 -8 -138 36 -148 46 -10 10 12 5 80 -17z m5638 18 c0
-2 -37 -24 -82 -49 -46 -25 -123 -70 -173 -100 -49 -31 -92 -54 -94 -51 -7 7
26 29 184 119 140 79 165 92 165 81z m2138 -26 c3 0 3 -3 0 -6 -7 -6 -78 22
-78 31 0 3 16 -2 36 -10 20 -8 39 -15 42 -15z m53 14 c17 -8 29 -18 26 -20 -3
-3 -22 4 -44 15 -21 11 -32 20 -25 21 7 0 27 -7 43 -16z m-9636 -4 c-11 -5
-27 -9 -35 -9 -13 -1 -13 0 0 9 8 5 24 9 35 9 l20 0 -20 -9z m2040 -90 c-25
-51 -49 -90 -52 -87 -2 3 16 46 42 97 26 50 49 89 52 86 2 -2 -17 -45 -42 -96z
m7860 90 c3 -5 2 -10 -4 -10 -5 0 -13 5 -16 10 -3 6 -2 10 4 10 5 0 13 -4 16
-10z m-10005 -35 c0 -6 -87 -45 -98 -45 -9 1 80 49 91 50 4 0 7 -2 7 -5z
m2530 -52 c177 -102 337 -235 510 -427 367 -407 538 -721 659 -1211 59 -241
65 -295 65 -605 0 -294 -15 -468 -50 -590 l-16 -55 -33 36 -32 36 13 62 c7 35
18 140 25 235 33 482 -68 963 -303 1430 -154 305 -440 639 -742 864 -82 61
-173 124 -203 139 -29 15 -53 32 -53 36 0 11 49 107 55 107 3 0 50 -26 105
-57z m4600 48 c0 -12 -20 -25 -27 -18 -7 7 6 27 18 27 5 0 9 -4 9 -9z m2755
-42 c4 -6 -11 -1 -33 10 -22 11 -44 26 -47 32 -4 6 11 1 33 -10 22 -11 44 -26
47 -32z m-9808 35 c-3 -3 -57 -28 -119 -55 -126 -54 -113 -35 15 23 75 33 120
47 104 32z m1993 -15 c12 -7 11 -8 -6 -9 -11 0 -29 7 -40 16 -18 14 -18 15 6
8 14 -3 32 -10 40 -15z m509 7 c7 -8 24 -17 39 -21 62 -13 282 -193 282 -230
0 -6 -79 54 -127 96 -18 16 -33 32 -33 37 0 5 -33 25 -72 45 -82 41 -143 86
-117 87 9 0 22 -6 28 -14z m7207 -24 c-4 -3 -14 2 -24 12 -16 18 -16 18 6 6
13 -6 21 -14 18 -18z m234 2 c0 -14 -21 -19 -33 -7 -9 9 13 34 24 27 5 -3 9
-12 9 -20z m-10195 -47 c-85 -50 -181 -107 -214 -129 -19 -12 -32 -17 -27 -10
9 15 98 73 191 123 75 42 116 54 50 16z m10135 3 c14 -11 20 -20 14 -20 -7 0
-22 9 -35 20 -31 25 -12 26 21 0z m-2975 -1 c8 -12 -29 -55 -60 -71 -15 -8
-13 -3 8 19 15 16 25 32 21 36 -7 7 4 27 16 27 5 0 12 -5 15 -11z m2916 -10
c23 -11 39 -23 36 -25 -5 -6 -87 33 -87 41 0 9 10 6 51 -16z m-7576 -11 c14
-6 25 -15 25 -20 0 -13 -13 -9 -40 12 -28 22 -23 25 15 8z m79 -89 c65 -39
120 -68 123 -65 4 3 4 7 2 9 -71 46 -118 81 -115 85 6 6 159 -96 206 -137 24
-21 29 -29 15 -25 -11 3 18 -30 65 -73 144 -133 282 -274 353 -363 85 -105
222 -311 273 -407 21 -40 39 -71 42 -69 2 2 -1 13 -7 24 -6 12 -11 27 -11 34
1 26 18 -18 45 -112 15 -52 30 -99 35 -104 5 -5 5 8 -1 28 -20 71 -2 47 30
-41 42 -114 42 -115 32 -108 -5 3 -12 19 -16 35 -4 16 -11 33 -17 36 -6 4 -8
-1 -4 -12 124 -409 163 -659 153 -1002 -3 -139 -11 -225 -31 -335 -23 -135
-45 -212 -46 -166 0 9 9 59 19 110 34 168 45 281 45 479 -1 209 -11 318 -50
500 -105 496 -293 866 -626 1233 -144 160 -374 347 -547 447 -87 50 -113 70
-93 70 5 0 62 -32 126 -71z m-2619 43 c-34 -20 -73 -37 -62 -26 16 16 63 43
77 43 8 1 2 -7 -15 -17z m7245 -1 c0 -12 -31 -47 -77 -88 -310 -273 -531 -548
-681 -848 -86 -173 -189 -469 -237 -680 -28 -122 -48 -171 -66 -159 -20 12 32
273 92 458 106 333 264 626 487 906 51 63 92 120 92 127 0 7 5 13 12 13 13 0
73 48 198 160 145 130 180 152 180 111z m135 -101 c25 -38 51 -72 56 -76 5 -3
20 -26 34 -52 13 -26 34 -63 47 -82 18 -28 19 -32 4 -20 -19 15 -206 292 -206
304 0 16 22 -9 65 -74z m2974 45 c57 -46 133 -116 129 -120 -2 -1 -45 33 -96
76 -93 78 -117 111 -33 44z m-8088 -22 c-11 -21 -20 -32 -21 -25 0 17 30 75
36 69 3 -3 -4 -22 -15 -44z m-2382 14 c-14 -12 -66 -51 -115 -87 -49 -36 -136
-105 -193 -155 -145 -127 -189 -159 -101 -75 100 94 242 212 343 282 86 60
110 73 66 35z m7399 -25 c-1 -4 -22 -22 -47 -41 -120 -89 -338 -326 -489 -530
-94 -128 -110 -148 -92 -111 28 55 134 201 230 318 56 68 100 125 98 128 -3 2
-53 -51 -113 -118 -60 -68 -117 -132 -128 -143 -20 -20 -20 -20 -1 13 54 88
342 387 473 491 52 41 55 42 63 22 4 -12 7 -25 6 -29z m2832 23 c0 -26 -231
-429 -484 -845 -46 -74 -134 -223 -196 -330 -62 -107 -129 -217 -148 -243 -19
-26 -32 -51 -28 -54 3 -3 -3 -18 -13 -32 -10 -14 -51 -87 -90 -161 -84 -157
-126 -217 -187 -266 -47 -39 -61 -67 -19 -40 24 15 25 15 25 -2 0 -28 -20 -42
-62 -42 -41 0 -66 19 -92 69 -16 29 -15 30 24 61 55 43 50 57 -7 23 l-48 -27
41 49 c65 81 151 204 319 460 87 132 289 429 448 660 159 231 318 461 352 510
34 50 75 113 90 140 28 49 51 75 67 75 4 0 8 -2 8 -5z m191 -12 c13 -16 12
-17 -3 -4 -10 7 -18 15 -18 17 0 8 8 3 21 -13z m511 -238 l31 -40 -39 35 c-77
69 -234 225 -234 233 0 12 205 -181 242 -228z m-11082 194 c-37 -32 -70 -53
-70 -45 0 7 91 76 99 76 3 -1 -10 -14 -29 -31z m2820 -17 c115 -68 292 -205
379 -293 116 -115 207 -222 335 -392 116 -155 159 -228 219 -369 115 -268 168
-454 203 -708 31 -223 18 -660 -21 -700 -10 -9 -15 -10 -15 -2 0 6 -19 21 -42
33 -40 20 -674 451 -937 636 -64 45 -237 164 -386 264 -148 100 -318 218 -377
262 l-108 81 31 55 c17 31 77 126 132 211 55 85 134 210 175 278 55 91 89 135
130 170 31 26 64 56 74 67 24 28 81 135 71 135 -11 -1 -53 -68 -53 -86 0 -24
-14 -16 -28 16 -12 27 -9 37 49 162 88 189 98 208 112 208 6 0 32 -13 57 -28z
m8120 8 c0 -5 -2 -10 -4 -10 -3 0 -8 5 -11 10 -3 6 -1 10 4 10 6 0 11 -4 11
-10z m-7485 -20 c3 -5 2 -10 -4 -10 -5 0 -13 5 -16 10 -3 6 -2 10 4 10 5 0 13
-4 16 -10z m7091 -28 c67 -44 176 -139 247 -215 83 -89 241 -297 316 -414 87
-138 204 -385 260 -551 96 -286 125 -474 126 -827 0 -223 -15 -367 -51 -498
-8 -28 -26 -97 -40 -151 -70 -274 -269 -664 -448 -876 -39 -47 -145 -159 -236
-250 -151 -152 -178 -174 -320 -265 -256 -163 -480 -259 -775 -330 -189 -46
-349 -59 -653 -52 -226 4 -259 7 -389 35 -296 64 -603 190 -819 337 -246 167
-444 343 -567 503 -124 160 -288 435 -377 627 -30 66 -110 314 -110 341 0 20
-52 11 655 119 420 64 646 94 1190 157 56 6 103 7 125 1 l35 -9 3 -98 3 -98
115 4 c129 3 135 6 155 81 13 48 4 60 -21 27 -15 -20 -29 -25 -83 -28 l-65 -4
-7 55 c-9 70 -4 91 20 95 11 2 34 10 52 18 17 8 35 14 41 14 5 0 16 7 23 16
12 14 17 11 49 -26 30 -36 43 -43 83 -47 100 -12 208 52 243 142 9 25 23 45
31 45 8 0 11 5 8 10 -9 14 10 12 93 -9 39 -11 72 -16 72 -11 0 4 -39 23 -87
42 -127 50 -125 62 14 129 123 58 127 78 5 24 -94 -41 -142 -53 -142 -36 0 7
38 83 84 169 46 86 113 213 148 282 36 69 135 242 220 385 85 143 192 327 238
408 46 82 92 153 102 158 19 10 128 150 128 164 0 5 -21 -11 -47 -35 l-46 -45
20 35 c92 162 298 490 308 490 7 0 38 -17 71 -38z m184 -27 c13 -14 21 -25 18
-25 -2 0 -15 11 -28 25 -13 14 -21 25 -18 25 2 0 15 -11 28 -25z m-10840 5 c0
-5 -5 -10 -11 -10 -5 0 -7 5 -4 10 3 6 8 10 11 10 2 0 4 -4 4 -10z m2570 -21
c-7 -11 -14 -19 -16 -16 -7 7 7 37 17 37 6 0 5 -9 -1 -21z m721 4 c13 -16 12
-17 -3 -4 -17 13 -22 21 -14 21 2 0 10 -8 17 -17z m4423 2 c3 -9 77 -124 164
-258 166 -252 256 -395 515 -812 85 -137 198 -317 251 -400 53 -82 96 -156 96
-164 0 -15 -40 -15 -730 9 -230 8 -301 14 -325 26 -37 19 -222 74 -249 74 -39
0 0 -19 94 -45 52 -15 102 -31 110 -36 24 -13 -170 -10 -209 4 -40 14 -45 23
-61 99 -12 62 -70 151 -112 175 -41 22 -94 16 -117 -13 -28 -35 -26 -74 4
-135 26 -50 26 -69 1 -69 -8 0 -19 -6 -26 -14 -9 -12 -17 -12 -35 -4 -19 9
-30 7 -51 -7 -24 -15 -42 -17 -124 -12 -134 8 -134 8 -127 76 13 120 111 446
187 622 44 101 140 272 219 387 87 126 343 406 425 463 74 52 90 58 100 34z
m3357 -158 c71 -77 129 -144 129 -150 0 -7 -21 13 -47 43 -26 30 -81 91 -123
135 -41 44 -89 96 -105 115 -67 78 22 -10 146 -143z m-11131 118 c-7 -8 -18
-15 -24 -15 -6 0 -2 7 8 15 25 19 32 19 16 0z m10981 -18 c-1 -12 -15 -9 -19
4 -3 6 1 10 8 8 6 -3 11 -8 11 -12z m369 -78 c0 -14 -5 -11 -31 17 l-24 27 28
-18 c15 -9 27 -21 27 -26z m-11530 -79 c-93 -100 -134 -138 -99 -92 38 49 182
202 191 202 5 0 -36 -49 -92 -110z m2750 96 c0 -3 -4 -8 -10 -11 -5 -3 -10 -1
-10 4 0 6 5 11 10 11 6 0 10 -2 10 -4z m1221 -16 c18 -15 20 -19 8 -20 -9 0
-24 9 -34 20 -23 26 -4 26 26 0z m4273 -119 c20 -29 36 -58 36 -64 0 -12 -67
77 -96 128 l-17 30 20 -20 c12 -11 37 -44 57 -74z m-5569 -1 c3 -5 1 -10 -4
-10 -6 0 -11 5 -11 10 0 6 2 10 4 10 3 0 8 -4 11 -10z m1931 -160 c39 -52 79
-108 89 -125 l17 -30 -24 26 c-35 38 -178 235 -178 245 1 11 6 4 96 -116z
m-472 51 c-5 -6 -33 31 -33 44 -1 6 8 -1 19 -15 10 -14 17 -27 14 -29z m7284
14 c-3 -3 -9 2 -12 12 -6 14 -5 15 5 6 7 -7 10 -15 7 -18z m-11569 -37 c-12
-18 -48 -69 -80 -113 -102 -144 -231 -367 -286 -499 -75 -178 -109 -282 -155
-480 -36 -159 -60 -233 -44 -141 77 445 260 868 516 1189 61 77 90 103 49 44z
m8531 -78 c35 -52 55 -88 45 -80 -18 15 -125 175 -125 187 0 12 15 -8 80 -107z
m3110 89 c0 -6 -4 -7 -10 -4 -5 3 -10 11 -10 16 0 6 5 7 10 4 6 -3 10 -11 10
-16z m-6 -55 c10 -25 -1 -29 -14 -5 -6 12 -7 21 -1 21 5 0 12 -7 15 -16z
m-1053 -36 c-24 -39 -28 -30 -5 13 8 17 18 28 21 25 3 -3 -4 -20 -16 -38z
m-3200 -107 c-191 -319 -319 -708 -361 -1099 -7 -62 -17 -115 -21 -118 -13 -7
-11 28 6 162 41 313 134 629 254 866 60 118 182 320 189 313 2 -2 -28 -58 -67
-124z m-3236 87 l16 -33 -21 24 c-11 13 -20 27 -20 32 0 18 10 8 25 -23z
m-1560 -8 c-3 -5 -11 -10 -16 -10 -6 0 -7 5 -4 10 3 6 11 10 16 10 6 0 7 -4 4
-10z m-58 -35 c9 -25 -4 -29 -17 -6 -7 15 -7 21 0 21 6 0 13 -7 17 -15z m68
-45 c-3 -5 -13 -10 -21 -10 -8 0 -12 5 -9 10 3 6 13 10 21 10 8 0 12 -4 9 -10z
m-85 -14 c0 -9 -40 -13 -46 -5 -3 5 6 9 20 9 14 0 26 -2 26 -4z m9260 -58 c0
-17 -10 -6 -25 25 l-16 32 20 -25 c11 -14 21 -28 21 -32z m-9148 20 c-7 -7
-12 -8 -12 -2 0 6 3 14 7 17 3 4 9 5 12 2 2 -3 -1 -11 -7 -17z m-56 -14 c-4
-9 -9 -15 -11 -12 -3 3 -3 13 1 22 4 9 9 15 11 12 3 -3 3 -13 -1 -22z m2409
-60 c20 -29 40 -56 45 -59 6 -3 10 -12 10 -18 0 -13 -16 5 -79 88 -50 67 -60
85 -33 61 12 -11 38 -43 57 -72z m-501 50 c3 -8 2 -12 -4 -9 -6 3 -10 10 -10
16 0 14 7 11 14 -7z m-184 -67 c0 -16 -18 3 -23 25 -6 22 -5 22 8 4 8 -11 15
-24 15 -29z m215 23 c3 -5 1 -10 -4 -10 -6 0 -11 5 -11 10 0 6 2 10 4 10 3 0
8 -4 11 -10z m4185 -20 c0 -5 -2 -10 -4 -10 -3 0 -8 5 -11 10 -3 6 -1 10 4 10
6 0 11 -4 11 -10z m3130 -25 c0 -8 -2 -15 -4 -15 -2 0 -6 7 -10 15 -3 8 -1 15
4 15 6 0 10 -7 10 -15z m-7496 -44 c-6 -6 -24 19 -24 34 1 6 7 1 15 -9 8 -11
12 -22 9 -25z m4434 -47 c-4 -3 -12 5 -18 18 -12 22 -12 22 6 6 10 -10 15 -20
12 -24z m-9028 -59 c-6 -15 -13 -25 -16 -23 -2 3 1 17 7 32 16 34 23 27 9 -9z
m5406 -22 c-7 -7 -26 7 -26 19 0 6 6 6 15 -2 9 -7 13 -15 11 -17z m3678 1 c3
-8 2 -12 -4 -9 -6 3 -10 10 -10 16 0 14 7 11 14 -7z m3086 -17 c0 -5 -4 -5
-10 -2 -5 3 -10 14 -10 23 0 15 2 15 10 2 5 -8 10 -19 10 -23z m-12218 -49
c-7 -7 -12 -8 -12 -2 0 14 12 26 19 19 2 -3 -1 -11 -7 -17z m7539 -11 c-8 -8
-11 -7 -11 4 0 20 13 34 18 19 3 -7 -1 -17 -7 -23z m-2021 -12 c0 -5 -5 -3
-10 5 -5 8 -10 20 -10 25 0 6 5 3 10 -5 5 -8 10 -19 10 -25z m3680 -19 c0 -6
-7 -2 -15 8 -8 11 -15 25 -15 30 0 6 7 2 15 -8 8 -11 15 -25 15 -30z m-9226
-33 c-78 -181 -132 -364 -164 -548 -25 -146 -30 -169 -35 -163 -6 6 13 138 37
258 28 144 150 490 173 490 3 0 -2 -17 -11 -37z m5055 -178 c11 -22 22 -62 26
-90 4 -27 11 -55 16 -62 11 -13 1 -65 -11 -58 -4 2 -10 27 -14 55 -4 28 -23
106 -43 173 -45 156 -50 180 -18 92 14 -38 34 -88 44 -110z m556 165 c3 -5 1
-10 -4 -10 -6 0 -11 5 -11 10 0 6 2 10 4 10 3 0 8 -4 11 -10z m1906 -51 l-10
-24 0 26 c-1 14 2 29 6 33 12 12 14 -9 4 -35z m1808 -47 c28 -43 51 -82 51
-88 0 -10 -72 93 -96 139 -27 51 -7 27 45 -51z m2991 58 c0 -5 -2 -10 -4 -10
-3 0 -8 5 -11 10 -3 6 -1 10 4 10 6 0 11 -4 11 -10z m-6632 -66 c-4 -3 -12 5
-18 18 -12 22 -12 22 6 6 10 -10 15 -20 12 -24z m-2778 -38 c44 -16 460 -279
555 -351 39 -29 122 -85 185 -124 63 -40 183 -119 265 -177 83 -58 268 -184
412 -280 144 -96 267 -181 273 -189 7 -8 18 -15 24 -15 13 0 135 -99 148 -120
6 -10 4 -28 -6 -52 l-16 -36 -172 107 c-95 60 -234 143 -308 186 -74 43 -196
115 -270 160 -74 46 -169 102 -210 125 -73 42 -228 139 -420 265 -52 34 -126
79 -165 100 -38 20 -124 72 -190 115 -66 43 -145 90 -175 105 -69 34 -93 65
-52 65 31 0 55 35 49 70 -12 59 6 71 73 46z m2850 -51 c0 -5 -9 1 -20 15 -11
14 -20 30 -20 35 0 6 9 -1 20 -15 11 -14 20 -29 20 -35z m4716 9 c-4 -9 -9
-15 -11 -12 -3 3 -3 13 1 22 4 9 9 15 11 12 3 -3 3 -13 -1 -22z m-7844 -33
c-1 -7 3 -19 9 -27 19 -23 4 -27 -30 -9 -34 17 -37 25 -19 43 16 16 44 10 40
-7z m2263 -67 c10 -41 15 -78 12 -81 -6 -6 -23 52 -33 115 -11 70 3 47 21 -34z
m916 33 c12 -22 12 -22 -10 -3 -11 11 -21 23 -21 28 0 14 19 -1 31 -25z m6604
23 c3 -5 3 -15 -1 -21 -6 -11 -23 6 -24 24 0 10 18 9 25 -3z m-2919 -126 c41
-62 74 -119 74 -126 0 -7 -15 10 -32 37 -18 28 -56 87 -85 133 -30 46 -48 80
-42 76 6 -3 45 -58 85 -120z m-6799 64 c-3 -8 -6 -5 -6 6 -1 11 2 17 5 13 3
-3 4 -12 1 -19z m4750 -20 c-3 -8 -6 -5 -6 6 -1 11 2 17 5 13 3 -3 4 -12 1
-19z m-1577 -9 c0 -6 -4 -7 -10 -4 -5 3 -10 11 -10 16 0 6 5 7 10 4 6 -3 10
-11 10 -16z m2098 -41 c-7 -19 -38 -22 -38 -4 0 10 9 16 21 16 12 0 19 -5 17
-12z m-5238 -8 c0 -5 -4 -10 -10 -10 -5 0 -10 5 -10 10 0 6 5 10 10 10 6 0 10
-4 10 -10z m7615 -50 c-14 -29 -29 -50 -32 -47 -3 3 7 28 23 56 36 66 43 59 9
-9z m-2908 28 c-3 -8 -6 -5 -6 6 -1 11 2 17 5 13 3 -3 4 -12 1 -19z m610 -4
c-3 -3 -12 -4 -19 -1 -8 3 -5 6 6 6 11 1 17 -2 13 -5z m-2027 -117 c-1 -13
-37 28 -71 78 -12 17 -1 10 25 -18 25 -27 46 -54 46 -60z m-3450 83 c0 -5 -11
-10 -25 -10 -14 0 -25 5 -25 10 0 6 11 10 25 10 14 0 25 -4 25 -10z m2379
-103 c6 -43 11 -90 10 -105 -1 -51 -16 8 -23 93 -4 44 -9 89 -12 100 -4 16 -3
17 5 5 5 -8 14 -50 20 -93z m-2469 49 c0 -7 11 -19 25 -26 36 -19 31 -30 -15
-30 -50 0 -52 -16 -9 -65 l31 -35 -30 0 c-35 0 -67 33 -77 80 -9 40 0 62 32
82 29 17 43 15 43 -6z m2637 -8 c-3 -8 -6 -5 -6 6 -1 11 2 17 5 13 3 -3 4 -12
1 -19z m-2517 -3 c-7 -8 -16 -15 -20 -15 -4 0 -10 7 -14 15 -4 11 2 15 21 15
21 0 24 -2 13 -15z m-576 -11 c28 -11 17 -24 -19 -24 -33 0 -43 8 -28 23 8 9
27 9 47 1z m8260 -19 c-4 -8 -8 -15 -10 -15 -2 0 -4 7 -4 15 0 8 4 15 10 15 5
0 7 -7 4 -15z m-7994 -17 c0 -11 15 -44 68 -150 8 -18 -36 -6 -72 18 -45 31
-72 85 -56 113 15 29 60 43 60 19z m4545 2 c-3 -5 -13 -10 -21 -10 -8 0 -12 5
-9 10 3 6 13 10 21 10 8 0 12 -4 9 -10z m152 -7 c0 -14 -11 -16 -44 -7 -13 4
-20 10 -18 15 8 13 62 6 62 -8z m118 7 c3 -5 1 -10 -4 -10 -6 0 -11 5 -11 10
0 6 2 10 4 10 3 0 8 -4 11 -10z m142 -22 c-3 -7 -5 -2 -5 12 0 14 2 19 5 13 2
-7 2 -19 0 -25z m665 14 c-13 -9 -41 -31 -61 -49 -37 -31 -89 -58 -98 -49 -2
2 17 18 42 36 80 55 180 108 117 62z m1815 -154 c57 -88 102 -162 99 -165 -7
-7 -226 313 -226 331 0 20 32 -22 127 -166z m-7079 135 c2 -8 -6 -13 -23 -13
-14 0 -39 -7 -54 -15 -27 -14 -41 -11 -41 7 0 4 8 8 18 8 9 0 28 7 42 14 29
17 52 16 58 -1z m4046 8 c3 -5 -1 -11 -9 -15 -9 -3 -15 0 -15 9 0 16 16 20 24
6z m982 -6 c-10 -8 -23 -12 -28 -9 -14 9 2 24 25 24 21 -1 21 -1 3 -15z m445
-7 c11 -21 11 -22 -4 -9 -10 7 -17 17 -17 22 0 15 9 10 21 -13z m-6057 -12
c-12 -30 -94 -62 -94 -36 0 6 12 10 26 10 14 0 35 10 47 24 24 27 31 28 21 2z
m123 -19 c21 -16 4 -27 -22 -15 -25 11 -30 20 -19 31 7 6 18 2 41 -16z m4928
13 c4 -6 -8 -10 -29 -10 -20 0 -36 5 -36 10 0 6 13 10 29 10 17 0 33 -4 36
-10z m991 -15 c23 -35 11 -42 -19 -11 -36 36 -60 33 -96 -11 -17 -21 -31 -32
-31 -25 0 8 13 27 29 43 39 39 93 41 117 4z m153 4 c31 -23 86 -27 686 -49
327 -12 575 -27 583 -34 7 -8 -59 -76 -101 -103 -31 -19 -97 -35 -329 -78
-674 -126 -1562 -266 -1587 -251 -4 3 -11 31 -15 63 -4 31 -9 67 -12 79 -5 19
7 30 88 78 51 31 123 65 158 77 36 12 75 30 87 41 39 36 63 21 114 -72 68
-126 135 -162 191 -102 40 41 48 71 32 117 -26 75 -18 93 72 161 27 20 28 23
14 50 -8 16 -16 32 -18 37 -6 13 8 8 37 -14z m111 11 c0 -12 -8 -12 -35 0 -18
8 -17 9 8 9 15 1 27 -3 27 -9z m-1066 -6 c13 -5 16 -26 16 -121 0 -102 2 -114
15 -103 13 11 15 8 15 -16 0 -16 -5 -36 -10 -44 -9 -13 -13 -12 -30 8 -36 44
-62 201 -41 255 11 29 12 30 35 21z m1536 -4 c0 -5 -5 -10 -11 -10 -5 0 -7 5
-4 10 3 6 8 10 11 10 2 0 4 -4 4 -10z m-1130 -9 c0 -5 -6 -11 -14 -14 -8 -3
-20 -18 -28 -34 -13 -27 -16 -28 -101 -31 l-88 -3 3 38 c3 33 7 39 33 44 47
10 195 10 195 0z m4739 -405 c1 -38 1 -39 21 -21 24 22 25 15 6 -70 -12 -50
-14 -54 -15 -26 -1 44 -18 30 -24 -19 -2 -19 -4 98 -4 260 1 306 2 299 16
-124z m-7312 372 c-3 -7 -5 -2 -5 12 0 14 2 19 5 13 2 -7 2 -19 0 -25z m1868
22 c8 -13 -5 -13 -25 0 -13 8 -13 10 2 10 9 0 20 -4 23 -10z m-179 -40 c7 -19
14 -66 15 -104 l4 -68 -48 -19 c-45 -18 -50 -18 -80 -3 -63 33 -156 105 -151
118 10 26 78 68 159 97 69 25 88 21 101 -21z m186 -2 c56 -30 88 -67 88 -101
0 -21 -33 -60 -78 -91 -33 -22 -44 -26 -60 -17 -47 25 -52 38 -52 135 0 51 3
96 7 99 12 13 35 7 95 -25z m1044 14 c1 -7 0 -8 -3 -2 -8 17 -23 1 -16 -18 5
-13 3 -15 -7 -5 -15 14 -5 46 12 41 6 -2 13 -10 14 -16z m-5854 -28 c29 -15
51 -44 63 -81 6 -20 3 -23 -23 -23 -17 0 -37 9 -49 23 -22 24 -63 90 -63 101
0 9 35 -1 72 -20z m5518 -25 c0 -25 -3 -30 -16 -25 -10 4 -25 -1 -35 -10 -23
-21 -24 -34 -4 -34 31 0 13 -22 -46 -58 -100 -61 -218 -141 -339 -230 -135
-99 -195 -135 -212 -129 -7 2 3 12 22 22 92 46 108 105 29 105 -10 0 -19 -7
-19 -15 0 -8 -3 -15 -7 -15 -5 0 -18 -3 -30 -6 -14 -4 -23 -2 -23 4 0 18 88
73 155 97 106 39 439 240 495 300 13 14 25 25 27 25 2 0 3 -14 3 -31z m-5170
11 c0 -6 -7 -13 -15 -16 -20 -8 -48 3 -40 16 8 13 55 13 55 0z m5486 -31 c4
-8 1 -8 -14 0 -12 6 -24 16 -28 22 -4 8 -1 8 14 0 12 -6 24 -16 28 -22z m64
17 c0 -2 -7 -6 -15 -10 -8 -3 -15 -1 -15 4 0 6 7 10 15 10 8 0 15 -2 15 -4z
m-6000 -36 c0 -18 -19 -11 -30 11 -11 19 -10 20 9 9 12 -6 21 -15 21 -20z
m360 20 c0 -5 -7 -10 -15 -10 -8 0 -15 5 -15 10 0 6 7 10 15 10 8 0 15 -4 15
-10z m4001 -23 c-8 -8 -11 -7 -11 4 0 20 13 34 18 19 3 -7 -1 -17 -7 -23z
m1139 19 c0 -6 -87 -56 -98 -56 -11 0 -22 46 -14 55 6 6 112 7 112 1z m-5230
-26 c-8 -5 -19 -10 -25 -10 -5 0 -3 5 5 10 8 5 20 10 25 10 6 0 3 -5 -5 -10z
m7230 2 c0 -13 -23 -32 -39 -32 -11 0 -10 4 4 20 19 21 35 26 35 12z m325 -12
c10 -11 14 -20 8 -20 -5 0 -18 9 -28 20 -10 11 -14 20 -8 20 5 0 18 -9 28 -20z
m-235 2 c0 -13 -23 -32 -37 -32 -11 0 -11 5 -3 20 10 19 40 28 40 12z m-4545
-210 c-4 -57 -9 -101 -12 -98 -3 2 -1 74 4 158 4 89 9 130 11 98 2 -30 1 -101
-3 -158z m2242 161 c-3 -10 -5 -2 -5 17 0 19 2 27 5 18 2 -10 2 -26 0 -35z
m-5247 15 c0 -6 8 -17 17 -24 10 -7 14 -16 10 -21 -5 -4 -20 5 -33 20 -27 32
-31 49 -9 41 8 -4 15 -11 15 -16z m2827 -50 c-2 -13 -4 -3 -4 22 0 25 2 35 4
23 2 -13 2 -33 0 -45z m4733 32 c-11 -20 -30 -28 -30 -12 0 11 22 32 32 32 5
0 4 -9 -2 -20z m-7433 -27 c3 -10 15 -28 26 -40 11 -13 18 -26 14 -29 -8 -8
-67 56 -67 73 0 19 20 16 27 -4z m4336 -33 c37 -28 73 -62 80 -77 11 -24 9
-28 -18 -47 -16 -12 -48 -38 -71 -58 -22 -21 -45 -38 -50 -38 -8 0 -78 84 -98
118 -8 12 26 113 47 140 17 21 40 13 110 -38z m1467 40 c-20 -13 -53 -13 -45
0 3 6 18 10 33 10 21 0 24 -2 12 -10z m1550 -65 c-7 -64 -7 -66 -8 -20 -2 45
7 101 13 93 1 -2 -1 -34 -5 -73z m-9863 43 c-3 -8 -6 -5 -6 6 -1 11 2 17 5 13
3 -3 4 -12 1 -19z m10178 -18 c-3 -5 -10 -10 -16 -10 -5 0 -9 5 -9 10 0 6 7
10 16 10 8 0 12 -4 9 -10z m-3035 -10 c11 -7 5 -10 -25 -10 -71 0 -125 -50
-146 -135 l-7 -30 -1 33 c-3 90 115 183 179 142z m-4657 -32 c21 -21 28 -33
19 -36 -16 -5 -54 27 -46 39 3 5 -4 9 -16 9 -12 0 -18 5 -15 10 10 17 25 11
58 -22z m4853 -22 c-7 -42 -30 -86 -45 -86 -28 0 -20 87 11 120 27 29 41 16
34 -34z m2782 -1 c-3 -3 -13 7 -23 22 l-17 28 23 -22 c12 -12 20 -25 17 -28z
m-7278 20 c0 -43 -62 -117 -81 -98 -14 14 -4 46 28 83 27 32 53 39 53 15z
m6967 -10 c1 -5 -2 -17 -7 -25 -8 -13 -11 -13 -26 2 -9 9 -13 21 -9 28 8 13
37 10 42 -5z m-2577 -14 c20 -38 13 -41 -82 -41 -64 0 -88 3 -78 10 8 5 32 10
53 10 26 0 36 4 31 11 -4 8 -27 10 -65 6 -33 -3 -59 -3 -59 -1 0 12 53 23 117
23 62 1 74 -2 83 -18z m-4610 -12 c0 -11 -4 -17 -10 -14 -5 3 -10 13 -10 21 0
8 5 14 10 14 6 0 10 -9 10 -21z m7065 -14 c0 -25 -3 -25 -395 -65 -168 -17
-359 -37 -425 -44 -112 -12 -135 -12 -124 -2 2 2 101 19 219 37 118 17 305 47
415 65 110 18 225 32 255 31 48 -2 55 -5 55 -22z m705 16 c0 -6 -4 -13 -10
-16 -5 -3 -10 1 -10 9 0 9 5 16 10 16 6 0 10 -4 10 -9z m-110 -8 c0 -10 -52
-35 -58 -28 -2 2 -2 11 1 20 6 15 57 22 57 8z m-10293 -35 c-3 -7 -5 -2 -5 12
0 14 2 19 5 13 2 -7 2 -19 0 -25z m10333 -22 c-13 -13 -35 7 -25 24 5 8 11 8
21 -1 10 -8 12 -15 4 -23z m-7620 -6 c0 -5 -5 -10 -11 -10 -5 0 -7 5 -4 10 3
6 8 10 11 10 2 0 4 -4 4 -10z m7155 0 c-3 -5 -21 -10 -38 -10 -24 0 -28 3 -17
10 20 13 63 13 55 0z m-2668 -17 c6 -16 -55 -53 -84 -53 -28 0 -29 8 -5 27 12
10 14 16 5 19 -7 3 -13 10 -13 15 0 14 93 6 97 -8z m2516 10 c-7 -2 -19 -2
-25 0 -7 3 -2 5 12 5 14 0 19 -2 13 -5z m-2809 -40 c-30 -22 -39 -15 -13 13
15 16 25 21 28 13 2 -7 -4 -18 -15 -26z m2693 21 c-3 -3 -12 -4 -19 -1 -8 3
-5 6 6 6 11 1 17 -2 13 -5z m-1983 -35 c3 -17 5 -50 5 -73 -1 -23 -4 -31 -6
-18 -4 18 -9 21 -29 16 -21 -6 -24 -3 -24 24 0 38 9 64 21 56 5 -3 9 2 9 10 0
28 17 17 24 -15z m1861 21 c-11 -5 -45 -8 -75 -8 l-55 1 60 7 c87 10 92 10 70
0z m-2445 -14 c0 -11 -19 -15 -25 -6 -3 5 1 10 9 10 9 0 16 -2 16 -4z m2193
-3 c-7 -2 -19 -2 -25 0 -7 3 -2 5 12 5 14 0 19 -2 13 -5z m-556 -19 c-3 -3
-12 -4 -19 -1 -8 3 -5 6 6 6 11 1 17 -2 13 -5z m416 -1 c-7 -2 -21 -2 -30 0
-10 3 -4 5 12 5 17 0 24 -2 18 -5z m-575 -10 c-10 -2 -28 -2 -40 0 -13 2 -5 4
17 4 22 1 32 -1 23 -4z m-5863 -33 c-10 -11 -28 -20 -39 -19 -21 0 -21 0 -1 9
12 4 27 15 34 24 8 9 16 14 19 11 3 -3 -3 -14 -13 -25z m4217 13 c23 -21 26
-52 2 -33 -18 16 -38 50 -28 50 4 0 16 -7 26 -17z m-6833 -159 c6 -55 15 -112
21 -125 11 -24 10 -8 -5 176 -4 39 -2 53 3 40 5 -11 12 -51 16 -90 14 -136 48
-338 67 -399 21 -70 24 -100 8 -90 -31 19 48 -201 135 -376 107 -215 243 -417
398 -590 132 -149 154 -175 128 -155 -38 29 -192 200 -261 290 -180 236 -319
499 -413 780 -59 179 -128 555 -125 680 1 30 1 30 9 -5 5 -19 13 -80 19 -136z
m8758 160 c-9 -9 -457 -61 -457 -53 0 9 42 16 227 39 157 19 240 24 230 14z
m990 -20 c-9 -9 -28 6 -21 18 4 6 10 6 17 -1 6 -6 8 -13 4 -17z m-4571 -94
c-7 -115 -27 -237 -45 -280 -11 -25 -11 -24 -7 5 2 17 11 68 19 115 8 47 18
127 22 178 4 50 10 92 13 92 3 0 2 -50 -2 -110z m2023 99 c70 -24 70 -118 1
-154 -46 -24 -75 -19 -109 20 -33 38 -38 60 -20 99 19 42 69 56 128 35z m-227
-39 c-2 -22 -8 -42 -13 -45 -14 -9 -59 6 -59 20 0 12 57 65 70 65 3 0 4 -18 2
-40z m2423 23 c-27 -8 -70 -17 -95 -19 -227 -19 -271 -27 -307 -56 -37 -29
-56 -31 -33 -3 11 13 7 15 -32 15 -25 0 -70 -5 -99 -11 -30 -6 -81 -12 -113
-14 -33 -2 -89 -10 -125 -19 -36 -8 -122 -20 -191 -26 -69 -6 -201 -22 -295
-35 -93 -14 -214 -28 -269 -32 -93 -6 -98 -5 -94 13 5 26 70 39 333 64 121 11
423 43 670 70 511 57 616 67 665 68 33 0 32 -1 -15 -15z m542 11 c-3 -3 -12
-4 -19 -1 -8 3 -5 6 6 6 11 1 17 -2 13 -5z m-317 -14 c0 -5 -14 -10 -31 -10
-17 0 -28 4 -24 10 3 6 17 10 31 10 13 0 24 -4 24 -10z m-1386 -30 c-11 -4
-115 -16 -230 -25 -115 -9 -240 -20 -279 -25 -38 -5 -81 -9 -95 -9 -23 0 -24
1 -4 9 35 14 453 55 589 58 31 1 35 -1 19 -8z m1236 6 c0 -2 -7 -6 -15 -10 -8
-3 -15 -1 -15 4 0 6 7 10 15 10 8 0 15 -2 15 -4z m-4134 -48 c-3 -18 -8 -64
-11 -103 -7 -71 -31 -241 -42 -282 -4 -19 -1 -23 17 -23 12 0 20 -5 18 -12 -7
-21 -26 -20 -38 2 -8 16 -6 54 9 163 11 78 23 175 27 215 4 39 11 72 16 72 5
0 7 -15 4 -32z m3959 22 c-3 -5 -15 -10 -26 -10 -10 0 -19 5 -19 10 0 6 12 10
26 10 14 0 23 -4 19 -10z m-165 -10 c0 -5 -5 -10 -11 -10 -5 0 -7 5 -4 10 3 6
8 10 11 10 2 0 4 -4 4 -10z m3541 -70 c-9 -23 -10 -23 -10 12 -1 20 2 45 7 55
6 14 8 12 10 -12 2 -17 -1 -42 -7 -55z m-5154 34 c-3 -3 -12 -4 -19 -1 -8 3
-5 6 6 6 11 1 17 -2 13 -5z m1158 -34 c-3 -5 -16 -10 -28 -10 -18 0 -19 2 -7
10 20 13 43 13 35 0z m-2072 -23 c8 -20 0 -29 -93 -95 -47 -33 -101 -77 -120
-97 -34 -36 -107 -81 -116 -72 -3 2 18 23 46 47 82 69 58 105 -32 47 -29 -19
-71 -38 -93 -42 -22 -4 -38 -5 -35 -2 16 16 218 127 230 127 9 0 52 22 95 50
83 51 109 59 118 37z m77 -9 c0 -6 -6 -5 -15 2 -8 7 -15 14 -15 16 0 2 7 1 15
-2 8 -4 15 -11 15 -16z m1851 13 c-12 -8 -51 -4 -51 5 0 2 15 4 33 4 22 0 28
-3 18 -9z m-126 -21 c-28 -12 -67 -12 -60 0 3 6 23 10 43 9 30 0 33 -2 17 -9z
m4221 -32 c-12 -79 -49 -223 -53 -210 -5 13 47 252 55 252 2 0 2 -19 -2 -42z
m-4999 -58 c48 -169 108 -335 121 -335 17 0 32 -24 32 -52 0 -12 4 -23 8 -25
7 -3 82 -154 82 -165 0 -3 -7 0 -15 7 -8 7 -15 9 -15 4 0 -15 108 -233 145
-294 51 -84 43 -87 -12 -5 -98 146 -241 473 -328 750 -26 83 -50 157 -55 165
-8 17 -26 11 -23 -8 1 -17 -41 -37 -61 -29 -23 9 -19 43 7 62 12 9 37 14 56
13 33 -3 34 -4 58 -88z m628 70 c-3 -5 -23 -10 -43 -10 -28 0 -33 3 -22 10 20
13 73 13 65 0z m-168 -26 c-3 -3 -12 -4 -19 -1 -8 3 -5 6 6 6 11 1 17 -2 13
-5z m-1062 -29 c-34 -28 -35 -28 -90 -15 -25 6 -44 5 -51 -1 -13 -10 -54 8
-54 23 0 12 76 9 104 -3 20 -10 28 -9 41 5 9 9 31 16 48 16 l32 -1 -30 -24z
m245 16 c0 -10 -119 -45 -127 -38 -7 8 30 26 74 36 52 12 53 12 53 2z m399
-46 c-1 -29 -1 -29 -9 -5 -4 14 -8 34 -9 45 -1 16 1 17 9 5 5 -8 9 -28 9 -45z
m286 45 c-3 -5 -23 -9 -43 -9 l-37 1 30 8 c44 11 57 11 50 0z m-1175 -32 c0
-13 -23 -5 -28 10 -2 7 2 10 12 6 9 -3 16 -11 16 -16z m575 1 c-4 -5 -13 -9
-22 -9 -13 0 -13 3 -3 15 13 15 35 11 25 -6z m5292 -21 c-3 -8 -6 -5 -6 6 -1
11 2 17 5 13 3 -3 4 -12 1 -19z m-6427 -13 c0 -8 -4 -15 -10 -15 -5 0 -10 7
-10 15 0 8 5 15 10 15 6 0 10 -7 10 -15z m-276 -52 c-9 -52 -14 -54 -14 -5 0
23 5 42 10 42 7 0 8 -14 4 -37z m941 27 c8 -13 -5 -13 -25 0 -13 8 -13 10 2
10 9 0 20 -4 23 -10z m228 3 c-7 -2 -21 -2 -30 0 -10 3 -4 5 12 5 17 0 24 -2
18 -5z m197 -3 c-20 -13 -53 -13 -45 0 3 6 18 10 33 10 21 0 24 -2 12 -10z
m-270 -40 c0 -5 -9 -10 -19 -10 -11 0 -23 5 -26 10 -4 6 5 10 19 10 14 0 26
-4 26 -10z m-1822 -20 c23 -22 28 -55 13 -79 -8 -12 -14 -12 -40 -2 -32 14
-39 29 -33 74 5 33 29 36 60 7z m772 4 c0 -2 -7 -4 -15 -4 -8 0 -15 4 -15 10
0 5 7 7 15 4 8 -4 15 -8 15 -10z m120 -40 c-8 -8 -23 -20 -34 -26 -19 -10 -18
-8 3 16 26 27 53 37 31 10z m-135 -24 c-3 -5 -11 -10 -16 -10 -6 0 -7 5 -4 10
3 6 11 10 16 10 6 0 7 -4 4 -10z m220 -1 c16 -7 14 -9 -12 -6 -18 2 -33 -1
-33 -6 0 -6 -3 -8 -6 -4 -9 8 5 27 19 26 7 0 21 -5 32 -10z m145 -19 c0 -5 -4
-10 -10 -10 -5 0 -10 5 -10 10 0 6 5 10 10 10 6 0 10 -4 10 -10z m1394 -37 c9
-25 14 -49 11 -51 -5 -5 -18 27 -29 71 -10 43 1 31 18 -20z m-1676 5 c-3 -7
-11 -13 -18 -13 -7 0 -15 6 -17 13 -3 7 4 12 17 12 13 0 20 -5 18 -12z m327 2
c-3 -5 -11 -10 -16 -10 -6 0 -7 5 -4 10 3 6 11 10 16 10 6 0 7 -4 4 -10z
m6156 -27 c-8 -15 -10 -15 -11 -2 0 17 10 32 18 25 2 -3 -1 -13 -7 -23z
m-7531 -113 c-16 -40 -23 -33 -9 9 6 18 14 30 17 27 2 -3 -1 -19 -8 -36z m35
-10 c-4 -12 -9 -19 -12 -17 -3 3 -2 15 2 27 4 12 9 19 12 17 3 -3 2 -15 -2
-27z m175 -1 c-7 -11 -14 -19 -16 -16 -7 7 7 37 17 37 6 0 5 -9 -1 -21z m7315
-26 c-16 -38 -33 -62 -22 -30 4 11 10 30 13 43 3 13 10 24 15 24 5 0 2 -17 -6
-37z m-7552 -33 c-5 -19 -23 -39 -23 -25 0 9 20 45 24 45 2 0 2 -9 -1 -20z
m7483 -27 c-22 -61 -66 -155 -83 -177 -15 -21 -15 -21 -8 1 9 32 94 213 100
213 2 0 -2 -17 -9 -37z m-12287 -21 c5 -18 6 -32 1 -32 -4 0 -11 11 -14 24 -3
13 -9 32 -12 43 -5 13 -4 15 5 7 6 -6 15 -25 20 -42z m12306 -39 c-49 -116
-192 -361 -283 -483 -158 -212 -411 -468 -577 -585 l-40 -28 36 34 c19 19 74
67 122 108 89 75 147 135 147 151 0 5 -23 -14 -52 -41 -176 -169 -499 -375
-736 -468 -154 -61 -506 -161 -519 -147 -3 3 12 9 33 15 304 78 430 121 609
207 313 150 546 328 815 619 45 50 65 68 44 40 -21 -27 -69 -85 -108 -128 -38
-42 -67 -80 -64 -83 9 -9 157 157 252 282 86 116 176 261 280 457 49 91 67
113 41 50z m-7533 5 c-7 -7 -12 -8 -12 -2 0 14 12 26 19 19 2 -3 -1 -11 -7
-17z m4 -92 c-8 -20 -18 -36 -21 -36 -3 0 2 16 10 36 8 20 15 39 15 42 0 3 3
3 6 0 3 -3 -2 -22 -10 -42z m-42 9 c-4 -8 -8 -15 -10 -15 -2 0 -4 7 -4 15 0 8
4 15 10 15 5 0 7 -7 4 -15z m-6 -107 c-6 -18 -13 -27 -15 -21 -4 11 13 53 22
53 2 0 -1 -15 -7 -32z m3026 17 c3 -8 1 -15 -4 -15 -6 0 -10 7 -10 15 0 8 2
15 4 15 2 0 6 -7 10 -15z m4396 -44 c-28 -56 -35 -52 -8 4 12 24 23 43 26 41
2 -2 -6 -22 -18 -45z m-7490 -21 c-6 -11 -13 -20 -16 -20 -2 0 0 9 6 20 6 11
13 20 16 20 2 0 0 -9 -6 -20z m3135 0 c3 -5 1 -10 -4 -10 -6 0 -11 5 -11 10 0
6 2 10 4 10 3 0 8 -4 11 -10z m39 -79 c-6 -6 -24 19 -24 34 1 6 7 1 15 -9 8
-11 12 -22 9 -25z m4256 -6 c-7 -9 -15 -13 -18 -10 -3 2 1 11 8 20 7 9 15 13
18 10 3 -2 -1 -11 -8 -20z m-7495 -35 c-9 -18 -19 -30 -22 -27 -3 3 3 19 13
36 23 39 30 32 9 -9z m3299 -50 c-6 -5 -24 21 -24 34 0 6 6 1 14 -10 8 -10 12
-21 10 -24z m4127 -16 c-11 -15 -21 -24 -21 -20 0 12 33 57 37 52 3 -3 -4 -17
-16 -32z m-7487 -31 c-33 -52 -95 -133 -100 -133 -7 0 16 36 68 108 40 54 63
72 32 25z m3417 -25 c16 -29 2 -21 -22 15 -17 23 -18 28 -6 18 10 -8 23 -23
28 -33z m-60 10 c11 -21 11 -22 -4 -9 -10 7 -17 17 -17 22 0 15 9 10 21 -13z
m133 -117 c-6 -6 -24 19 -24 34 1 6 7 1 15 -9 8 -11 12 -22 9 -25z m-3628 -49
c-18 -16 -18 -16 -6 6 6 13 14 21 18 18 3 -4 -2 -14 -12 -24z m-64 -84 c-7 -7
-12 -8 -12 -2 0 14 12 26 19 19 2 -3 -1 -11 -7 -17z m68 18 c0 -3 -4 -8 -10
-11 -5 -3 -10 -1 -10 4 0 6 5 11 10 11 6 0 10 -2 10 -4z m3741 -13 c13 -16 12
-17 -3 -4 -10 7 -18 15 -18 17 0 8 8 3 21 -13z m-3869 -75 c-7 -7 -12 -8 -12
-2 0 14 12 26 19 19 2 -3 -1 -11 -7 -17z m4038 -94 l35 -38 -50 41 c-27 23
-66 58 -85 79 l-35 38 50 -41 c28 -23 66 -58 85 -79z m-4100 27 c-11 -21 -30
-37 -30 -25 0 8 30 44 37 44 2 0 -1 -9 -7 -19z m4005 9 c3 -5 1 -10 -4 -10 -6
0 -11 5 -11 10 0 6 2 10 4 10 3 0 8 -4 11 -10z m-4074 -78 c-12 -22 -51 -58
-51 -47 0 9 50 65 57 65 2 0 -1 -8 -6 -18z m59 14 c0 -2 -8 -10 -17 -17 -16
-13 -17 -12 -4 4 13 16 21 21 21 13z m4167 -68 c3 -7 -8 -2 -25 10 -17 13 -35
28 -39 34 -3 7 8 2 25 -10 17 -13 35 -28 39 -34z m334 -175 c59 -33 179 -92
268 -133 157 -72 209 -105 94 -60 -186 73 -585 298 -638 360 -11 13 23 -7 75
-43 52 -36 143 -92 201 -124z m2679 37 c0 -5 -7 -10 -16 -10 -8 0 -12 5 -9 10
3 6 10 10 16 10 5 0 9 -4 9 -10z m-7460 -35 c-13 -14 -27 -25 -32 -25 -9 0 42
49 51 50 3 0 -6 -11 -19 -25z m-100 -29 c0 -7 -111 -78 -116 -74 -2 3 19 21
48 41 50 34 68 42 68 33z m-10 -56 c-8 -5 -19 -10 -25 -10 -5 0 -3 5 5 10 8 5
20 10 25 10 6 0 3 -5 -5 -10z m-140 -40 c0 -5 -5 -10 -11 -10 -5 0 -7 5 -4 10
3 6 8 10 11 10 2 0 4 -4 4 -10z m55 -20 c-3 -5 -11 -10 -16 -10 -6 0 -7 5 -4
10 3 6 11 10 16 10 6 0 7 -4 4 -10z m-2655 -10 c0 -5 -2 -10 -4 -10 -3 0 -8 5
-11 10 -3 6 -1 10 4 10 6 0 11 -4 11 -10z m2540 -55 c-14 -8 -29 -14 -35 -14
-5 0 1 6 15 14 14 8 30 14 35 14 6 0 -1 -6 -15 -14z m-85 -5 c-3 -5 -14 -10
-23 -10 -15 0 -15 2 -2 10 20 13 33 13 25 0z m-109 -49 c-8 -12 -66 -32 -66
-22 0 4 15 13 33 19 17 5 33 10 35 11 2 1 1 -3 -2 -8z m29 -26 c-16 -8 -37
-14 -45 -14 -8 0 -1 6 15 14 17 7 37 13 45 13 8 0 2 -6 -15 -13z m-91 -45 c-5
-5 -25 -12 -44 -15 l-35 -5 30 14 c35 18 64 21 49 6z m-146 -5 c-18 -19 -413
-113 -425 -101 -2 2 40 14 94 26 54 12 145 34 203 50 105 28 138 34 128 25z
m-18 -56 c-58 -23 -350 -90 -415 -94 -59 -4 -45 0 90 29 88 19 194 44 235 54
84 22 132 28 90 11z m-1277 -26 c38 -8 66 -17 64 -20 -7 -6 -189 27 -207 39
-18 11 47 2 143 -19z m482 -37 c205 0 281 -3 240 -9 -98 -13 -582 -4 -597 12
-11 11 -7 12 22 5 19 -4 170 -8 335 -8z"/>
<path d="M7252 7713 c-19 -7 -4 -23 23 -23 29 0 41 16 19 24 -18 7 -23 7 -42
-1z"/>
<path d="M7197 7613 c-15 -3 -25 -9 -22 -14 8 -12 92 -12 100 1 3 6 0 10 -9
10 -8 0 -20 2 -28 3 -7 2 -25 2 -41 0z"/>
<path d="M10046 5158 c-9 -68 5 -493 15 -476 12 17 11 515 0 522 -5 3 -12 -17
-15 -46z"/>
<path d="M10378 5195 c-6 -10 -22 -187 -33 -360 -7 -128 9 -78 29 90 16 132
19 292 4 270z"/>
<path d="M9725 5098 c19 -178 72 -476 74 -420 1 17 -48 420 -55 455 -3 15 -10
27 -16 27 -6 0 -8 -22 -3 -62z"/>
<path d="M10707 5095 c-10 -22 -45 -128 -78 -235 -33 -107 -71 -228 -85 -269
-25 -74 -27 -93 -5 -68 20 25 192 558 189 586 -4 25 -5 24 -21 -14z"/>
<path d="M9400 5023 c0 -18 35 -103 42 -103 10 0 11 -2 -7 58 -9 29 -20 52
-25 52 -6 0 -10 -3 -10 -7z"/>
<path d="M11045 5000 c-9 -17 -72 -169 -141 -337 -69 -168 -162 -391 -208
-497 -125 -288 -176 -410 -176 -421 0 -27 31 36 141 290 66 154 184 426 261
605 77 179 147 340 154 358 12 28 12 32 -1 32 -8 0 -22 -14 -30 -30z"/>
<path d="M9130 4791 c35 -66 69 -126 77 -133 8 -6 -16 47 -52 118 -37 71 -71
131 -77 133 -6 2 18 -51 52 -118z"/>
<path d="M9460 4825 c0 -8 5 -15 10 -15 6 0 10 7 10 15 0 8 -4 15 -10 15 -5 0
-10 -7 -10 -15z"/>
<path d="M9500 4726 c0 -7 71 -246 85 -285 3 -8 8 -12 10 -9 3 3 -10 56 -29
119 -33 110 -65 194 -66 175z"/>
<path d="M9230 4616 c0 -16 103 -217 108 -212 3 3 -14 44 -36 91 -42 86 -72
137 -72 121z"/>
<path d="M9800 4606 c0 -17 43 -350 56 -435 3 -18 8 -30 11 -27 3 3 1 47 -6
98 -6 51 -18 152 -27 223 -9 72 -20 137 -25 145 -7 12 -8 12 -9 -4z"/>
<path d="M10066 4478 c4 -62 8 -115 10 -117 2 -2 4 48 4 112 0 73 -4 117 -10
117 -7 0 -8 -39 -4 -112z"/>
<path d="M10300 4460 c0 -5 5 -10 10 -10 6 0 10 5 10 10 0 6 -4 10 -10 10 -5
0 -10 -4 -10 -10z"/>
<path d="M9371 4335 c0 -11 4 -27 9 -35 9 -13 10 -13 9 0 0 8 -4 24 -9 35 l-9
20 0 -20z"/>
<path d="M10445 4269 c-6 -19 0 -38 9 -28 10 12 16 49 7 49 -5 0 -13 -9 -16
-21z"/>
<path d="M9430 4205 c0 -13 32 -66 36 -62 6 6 -23 67 -31 67 -3 0 -5 -2 -5 -5z"/>
<path d="M10419 4163 c-5 -14 -8 -34 -7 -42 2 -9 9 3 15 27 12 47 8 56 -8 15z"/>
<path d="M10091 4094 c0 -11 3 -14 6 -6 3 7 2 16 -1 19 -3 4 -6 -2 -5 -13z"/>
<path d="M10387 4063 c-4 -3 -7 -11 -7 -17 0 -6 5 -5 12 2 6 6 9 14 7 17 -3 3
-9 2 -12 -2z"/>
<path d="M10347 3930 c-9 -35 -14 -66 -12 -68 6 -7 37 107 33 120 -3 7 -12
-17 -21 -52z"/>
<path d="M9570 3935 c0 -8 4 -15 10 -15 5 0 7 7 4 15 -4 8 -8 15 -10 15 -2 0
-4 -7 -4 -15z"/>
<path d="M9906 3880 c4 -41 10 -82 15 -90 14 -24 10 36 -6 105 l-14 60 5 -75z"/>
<path d="M9767 3890 c3 -19 12 -48 19 -65 l14 -30 -4 31 c-3 18 -12 47 -20 65
l-15 34 6 -35z"/>
<path d="M10091 3744 c1 -82 5 -160 9 -174 5 -14 6 48 3 145 -3 94 -7 172 -9
174 -2 2 -4 -63 -3 -145z"/>
<path d="M9615 3850 c16 -49 36 -92 42 -86 8 7 -25 94 -39 102 -6 4 -8 -2 -3
-16z"/>
<path d="M9825 3710 c6 -39 25 -66 25 -34 -1 10 -8 30 -16 44 l-15 25 6 -35z"/>
<path d="M10489 3675 c-11 -25 -19 -54 -17 -63 2 -9 13 11 25 46 25 73 21 82
-8 17z"/>
<path d="M9862 3609 c3 -8 13 -38 22 -66 10 -29 22 -56 28 -60 7 -4 9 -1 6 8
-3 8 -13 38 -22 66 -10 29 -22 56 -28 60 -7 4 -9 1 -6 -8z"/>
<path d="M10427 3544 c-4 -4 -7 -17 -7 -28 1 -19 1 -20 11 -3 11 19 8 43 -4
31z"/>
<path d="M9811 3451 c23 -46 45 -79 47 -73 6 18 -38 109 -65 134 -23 20 -20
12 18 -61z"/>
<path d="M9966 3508 c35 -235 57 -369 63 -393 7 -27 9 -28 16 -11 9 20 -60
403 -75 419 -4 5 -6 -2 -4 -15z"/>
<path d="M10102 3445 c0 -27 4 -61 8 -75 6 -20 8 -14 8 25 0 28 -4 61 -8 75
-6 20 -8 14 -8 -25z"/>
<path d="M10396 3458 c-18 -25 -21 -53 -5 -43 12 8 32 56 25 62 -2 2 -11 -6
-20 -19z"/>
<path d="M10255 3320 c-4 -6 -3 -16 3 -22 6 -6 12 -6 17 2 4 6 3 16 -3 22 -6
6 -12 6 -17 -2z"/>
<path d="M10208 3300 c-4 -14 -8 -50 -7 -80 0 -46 2 -51 10 -30 5 13 9 49 7
80 -2 42 -5 49 -10 30z"/>
<path d="M2615 5069 c-3 -30 -2 -148 4 -264 6 -115 11 -216 11 -222 0 -7 5
-13 11 -13 15 0 8 525 -8 541 -8 8 -13 -2 -18 -42z"/>
<path d="M2336 4975 c8 -158 40 -430 53 -452 17 -30 14 38 -14 292 -29 256
-49 337 -39 160z"/>
<path d="M2971 5048 c-19 -60 -51 -218 -97 -476 -24 -142 -56 -314 -69 -385
-26 -131 -32 -201 -14 -142 14 45 188 914 195 979 8 62 1 73 -15 24z"/>
<path d="M1960 5020 c0 -29 275 -1021 304 -1095 l16 -40 -6 40 c-3 22 -39 168
-80 325 -145 554 -232 841 -234 770z"/>
<path d="M3243 4935 c-18 -55 -51 -167 -73 -250 -23 -82 -61 -219 -86 -304
-25 -84 -43 -155 -41 -158 20 -20 242 725 235 787 -2 17 -14 -8 -35 -75z"/>
<path d="M3527 4893 c-37 -71 -148 -346 -144 -356 3 -7 10 1 16 18 7 16 28 63
48 105 46 97 106 251 99 257 -2 3 -11 -8 -19 -24z"/>
<path d="M1640 4860 c0 -9 43 -105 96 -215 181 -377 321 -680 439 -945 127
-289 207 -450 213 -432 2 6 -21 64 -51 129 -30 65 -72 159 -93 208 -20 50 -82
185 -137 300 -54 116 -115 246 -133 289 -64 146 -306 651 -320 666 -12 12 -14
12 -14 0z"/>
<path d="M1323 4727 c20 -52 366 -591 374 -583 5 5 -75 149 -124 221 -18 27
-33 53 -33 58 0 12 -199 305 -212 313 -7 5 -9 2 -5 -9z"/>
<path d="M2630 4298 c0 -148 4 -218 10 -208 13 20 13 417 0 425 -7 4 -10 -71
-10 -217z"/>
<path d="M1196 4393 c155 -152 370 -343 356 -316 -11 21 -217 218 -362 347
-125 112 -122 94 6 -31z"/>
<path d="M2415 4275 c5 -139 35 -395 47 -395 12 0 10 49 -12 229 -33 276 -40
306 -35 166z"/>
<path d="M820 4296 c0 -20 52 -62 387 -309 298 -221 333 -244 333 -229 0 11
-111 98 -449 353 -283 213 -271 205 -271 185z"/>
<path d="M2998 4075 c-10 -27 -33 -114 -52 -192 -20 -77 -40 -153 -46 -168 -9
-23 -8 -26 7 -23 18 3 43 83 93 302 25 106 23 157 -2 81z"/>
<path d="M1755 4040 c3 -5 8 -10 11 -10 2 0 4 5 4 10 0 6 -5 10 -11 10 -5 0
-7 -4 -4 -10z"/>
<path d="M2757 3964 c-3 -6 -9 -30 -13 -54 -9 -53 12 -48 22 5 7 37 2 66 -9
49z"/>
<path d="M1670 3951 c0 -6 5 -13 10 -16 6 -3 10 1 10 9 0 9 -4 16 -10 16 -5 0
-10 -4 -10 -9z"/>
<path d="M2465 3784 c3 -27 12 -132 21 -234 8 -102 18 -195 21 -207 8 -35 23
-27 23 13 0 63 -51 459 -60 468 -6 6 -8 -11 -5 -40z"/>
<path d="M2727 3795 c-39 -122 -60 -242 -37 -219 12 12 52 201 47 223 -2 13
-4 12 -10 -4z"/>
<path d="M2330 3653 c72 -279 104 -382 117 -370 5 6 -74 315 -112 436 -43 134
-46 91 -5 -66z"/>
<path d="M1649 3668 c15 -20 220 -175 266 -203 85 -50 -151 139 -250 201 -26
16 -28 16 -16 2z"/>
<path d="M495 3662 c6 -6 141 -66 300 -135 476 -205 1027 -444 1075 -466 45
-21 96 -28 86 -13 -3 5 -83 42 -178 82 -95 40 -279 120 -408 178 -662 293
-915 395 -875 354z"/>
<path d="M2180 3493 c11 -15 31 -33 43 -41 12 -8 4 4 -18 26 -45 48 -56 55
-25 15z"/>
<path d="M1980 3416 c0 -7 189 -168 228 -195 32 -23 51 -23 37 -2 -3 6 -32 29
-63 50 -31 22 -86 64 -122 95 -59 51 -80 64 -80 52z"/>
<path d="M320 3384 c0 -13 88 -38 396 -114 440 -109 586 -139 563 -115 -6 6
-926 235 -945 235 -8 0 -14 -2 -14 -6z"/>
<path d="M1335 3140 c3 -5 16 -10 28 -10 18 0 19 2 7 10 -20 13 -43 13 -35 0z"/>
<path d="M1420 3122 c0 -12 -15 -7 280 -82 129 -32 307 -77 394 -99 167 -43
196 -47 196 -31 0 14 -117 46 -383 106 -131 29 -277 64 -325 78 -114 32 -162
41 -162 28z"/>
<path d="M3184 3102 c-57 -42 -118 -101 -111 -109 7 -6 48 23 117 85 54 48 50
64 -6 24z"/>
<path d="M3092 3108 c-16 -21 -42 -76 -42 -90 0 -14 28 30 48 75 12 29 11 35
-6 15z"/>
<path d="M3215 3052 c-44 -26 -98 -60 -120 -75 -48 -33 -55 -33 -55 -5 0 20
-1 21 -16 7 -14 -15 -45 -91 -39 -97 4 -4 71 36 126 75 26 18 55 33 65 33 19
1 147 109 129 110 -5 0 -46 -22 -90 -48z"/>
<path d="M240 3030 c0 -10 -11 -8 280 -56 275 -44 561 -96 770 -139 91 -19
242 -46 335 -60 94 -15 284 -49 422 -76 238 -46 413 -72 422 -63 11 11 -83 35
-229 59 -91 14 -271 46 -400 71 -129 25 -280 49 -335 54 -55 4 -113 13 -128
19 -45 17 -138 37 -472 96 -336 61 -607 105 -642 105 -13 0 -23 -4 -23 -10z"/>
<path d="M3555 2939 c-11 -17 0 -20 21 -4 17 13 17 14 2 15 -9 0 -20 -5 -23
-11z"/>
<path d="M3475 2910 c-3 -5 1 -10 9 -10 8 0 18 5 21 10 3 6 -1 10 -9 10 -8 0
-18 -4 -21 -10z"/>
<path d="M2250 2861 c46 -24 90 -34 90 -21 0 13 -66 40 -99 40 -25 -1 -25 -2
9 -19z"/>
<path d="M3730 2813 c-14 -2 -108 -17 -210 -34 -168 -28 -212 -40 -199 -53 6
-6 407 61 433 72 24 10 10 19 -24 15z"/>
<path d="M2018 2793 c-27 -2 -48 -8 -48 -14 0 -10 338 -13 364 -3 9 3 13 10
10 15 -5 9 -225 10 -326 2z"/>
<path d="M1185 2743 c-86 -4 -107 -10 -83 -24 20 -11 269 11 262 23 -5 8 -28
8 -179 1z"/>
<path d="M489 2720 c-178 -9 -259 -18 -259 -31 0 -5 32 -7 72 -4 40 3 212 10
381 16 170 6 318 14 330 19 26 10 -309 10 -524 0z"/>
<path d="M2355 2711 c-3 -5 -1 -12 4 -15 12 -8 41 3 41 15 0 12 -37 12 -45 0z"/>
<path d="M3190 2710 c0 -15 35 -26 131 -45 80 -15 108 -13 79 5 -13 8 -57 19
-187 46 -13 2 -23 0 -23 -6z"/>
<path d="M3925 2663 c-16 -2 -37 -7 -45 -10 -21 -8 23 -21 75 -22 37 -1 75 12
65 22 -9 8 -65 14 -95 10z"/>
<path d="M2040 2634 c-47 -7 -91 -13 -99 -14 -10 0 -11 -3 -3 -13 9 -10 1 -18
-35 -36 -25 -12 -43 -24 -40 -27 7 -8 101 23 147 47 19 11 42 19 50 19 31 0
90 21 85 31 -4 5 -9 9 -13 8 -4 -1 -45 -7 -92 -15z"/>
<path d="M3452 2639 c-57 -5 -111 -13 -120 -19 -14 -8 -13 -9 9 -10 60 0 341
22 366 30 37 11 -116 10 -255 -1z"/>
<path d="M2885 2620 c-3 -6 2 -13 12 -16 10 -3 58 -24 106 -46 48 -22 90 -38
93 -35 10 9 -62 57 -124 82 -69 28 -78 29 -87 15z"/>
<path d="M3060 2610 c-12 -8 -12 -10 3 -16 22 -8 50 3 42 16 -8 12 -25 13 -45
0z"/>
<path d="M3224 2605 c39 -29 276 -111 276 -95 0 10 -121 61 -214 89 -80 25
-88 25 -62 6z"/>
<path d="M1723 2593 c-7 -2 -13 -9 -13 -15 0 -11 116 -1 140 13 16 9 -105 11
-127 2z"/>
<path d="M3610 2592 c8 -6 110 -26 225 -47 116 -20 284 -52 374 -71 156 -33
203 -37 150 -15 -116 50 -812 173 -749 133z"/>
<path d="M2315 2551 c-160 -57 -559 -229 -665 -287 -14 -7 -122 -56 -240 -108
-118 -51 -366 -162 -550 -246 -184 -84 -357 -161 -385 -171 -53 -19 -77 -44
-28 -30 54 16 441 185 808 353 382 176 846 380 1019 450 170 67 198 95 41 39z"/>
<path d="M1535 2560 l-40 -7 50 -1 c28 -1 57 3 65 8 18 11 -11 11 -75 0z"/>
<path d="M1388 2533 c6 -2 18 -2 25 0 6 3 1 5 -13 5 -14 0 -19 -2 -12 -5z"/>
<path d="M2383 2503 c-56 -42 -206 -168 -488 -408 -110 -93 -312 -263 -450
-376 -243 -201 -346 -288 -532 -454 -49 -44 -110 -97 -134 -117 -29 -24 -38
-37 -27 -37 9 -1 56 34 105 77 111 98 611 520 848 717 99 82 243 204 321 270
78 66 205 172 282 235 78 63 142 118 142 123 0 15 -20 6 -67 -30z"/>
<path d="M1175 2513 c-16 -2 -120 -15 -230 -28 -109 -14 -204 -30 -210 -36
-12 -12 33 -8 328 31 114 15 210 30 214 34 7 6 -49 6 -102 -1z"/>
<path d="M3140 2496 c29 -18 80 -22 64 -6 -6 6 -28 13 -50 16 -39 5 -39 5 -14
-10z"/>
<path d="M1552 2455 c-79 -24 -225 -71 -325 -104 -100 -33 -261 -85 -357 -117
-326 -106 -614 -215 -565 -214 6 0 163 53 350 116 187 63 493 166 680 228 301
99 403 137 370 135 -5 0 -74 -20 -153 -44z"/>
<path d="M2746 2471 c-20 -16 -50 -32 -67 -35 -16 -3 -42 -9 -59 -12 -25 -5
-29 -9 -25 -27 4 -15 -5 -38 -30 -72 -19 -27 -35 -56 -35 -62 0 -24 18 -13 40
22 25 41 45 46 36 10 -5 -19 -3 -23 8 -19 10 4 22 -8 36 -33 l21 -38 -6 35
c-2 19 -8 61 -11 92 l-7 56 55 31 c56 32 96 67 86 76 -3 3 -22 -8 -42 -24z"/>
<path d="M3255 2446 c26 -18 350 -186 358 -186 4 0 7 4 7 9 0 11 -351 191
-372 191 -7 0 -4 -6 7 -14z"/>
<path d="M455 2424 c-224 -28 -283 -47 -125 -40 111 5 330 39 358 56 25 14
-12 11 -233 -16z"/>
<path d="M3766 2420 c15 -15 1162 -410 1191 -410 23 0 4 19 -34 35 -81 34
-505 178 -773 263 -348 111 -397 125 -384 112z"/>
<path d="M2437 2358 c-43 -77 -60 -118 -47 -118 11 0 95 168 88 176 -4 3 -22
-23 -41 -58z"/>
<path d="M2794 2401 c4 -5 59 -49 124 -99 133 -101 253 -201 503 -417 96 -83
191 -164 212 -179 42 -32 67 -26 27 6 -14 11 -122 102 -240 203 -281 239 -600
495 -617 495 -8 0 -12 -4 -9 -9z"/>
<path d="M2528 2373 c-21 -8 -38 -19 -38 -24 0 -12 5 -11 45 5 19 8 35 20 35
25 0 13 4 14 -42 -6z"/>
<path d="M2708 2351 c-2 -16 -1 -37 2 -46 6 -18 7 -18 13 -1 10 25 9 64 -2 70
-5 3 -11 -7 -13 -23z"/>
<path d="M2780 2340 c24 -34 39 -45 47 -36 7 7 -46 66 -60 66 -4 0 1 -13 13
-30z"/>
<path d="M2750 2308 c0 -17 82 -138 93 -138 5 0 -2 17 -14 38 -72 118 -79 127
-79 100z"/>
<path d="M2485 2274 c-17 -42 -60 -177 -69 -219 -6 -30 -6 -30 13 5 17 32 69
171 86 228 10 36 -13 26 -30 -14z"/>
<path d="M2437 2283 c-4 -3 -7 -11 -7 -17 0 -6 5 -5 12 2 6 6 9 14 7 17 -3 3
-9 2 -12 -2z"/>
<path d="M2314 2266 c-10 -8 -16 -18 -12 -22 9 -8 68 15 68 27 0 14 -34 11
-56 -5z"/>
<path d="M3650 2251 c0 -5 64 -43 143 -84 605 -315 995 -516 1015 -522 33 -10
27 10 -10 33 -87 52 -1148 582 -1148 573z"/>
<path d="M2597 2234 c-4 -4 -7 -19 -6 -33 l0 -26 10 24 c10 26 8 47 -4 35z"/>
<path d="M2200 2215 c-22 -13 -23 -14 -5 -14 11 0 31 6 45 14 22 13 23 14 5
14 -11 0 -31 -6 -45 -14z"/>
<path d="M2351 2176 c-6 -16 -10 -31 -7 -33 7 -8 28 37 23 50 -3 7 -10 -1 -16
-17z"/>
<path d="M2697 2150 c-9 -44 -27 -219 -27 -260 0 -18 4 -29 10 -25 6 3 10 37
10 75 0 82 15 98 37 41 9 -23 20 -41 25 -41 12 0 -1 50 -21 80 -9 14 -18 55
-21 95 -5 61 -6 66 -13 35z"/>
<path d="M2941 2175 c-1 -15 66 -91 73 -84 4 3 -12 26 -33 50 -22 24 -40 40
-40 34z"/>
<path d="M2275 2144 c-27 -29 -33 -50 -12 -38 21 12 57 47 57 56 0 16 -21 7
-45 -18z"/>
<path d="M2641 2118 c0 -13 4 -32 9 -43 7 -16 9 -13 9 17 1 20 -3 40 -9 43 -6
3 -10 -4 -9 -17z"/>
<path d="M2565 2090 c-4 -12 -5 -24 -2 -27 3 -2 8 5 12 17 4 12 5 24 2 27 -3
2 -8 -5 -12 -17z"/>
<path d="M2353 2078 c-20 -26 -26 -41 -15 -34 12 7 36 46 29 46 -3 0 -9 -6
-14 -12z"/>
<path d="M2910 2059 c7 -11 14 -19 16 -16 7 7 -7 37 -17 37 -6 0 -5 -9 1 -21z"/>
<path d="M3060 2031 c0 -5 5 -13 10 -16 6 -3 10 -2 10 4 0 5 -4 13 -10 16 -5
3 -10 2 -10 -4z"/>
<path d="M2108 1982 c-29 -28 -51 -53 -48 -55 8 -7 115 92 107 99 -3 4 -30
-16 -59 -44z"/>
<path d="M2227 1921 c-58 -110 -73 -157 -37 -111 22 29 104 209 97 216 -2 2
-29 -45 -60 -105z"/>
<path d="M2547 1986 c-4 -10 -7 -30 -6 -44 1 -25 1 -25 10 6 11 37 7 67 -4 38z"/>
<path d="M3700 1975 c0 -8 82 -65 93 -65 15 0 -24 40 -55 56 -29 15 -38 17
-38 9z"/>
<path d="M2876 1950 c13 -55 133 -318 518 -1135 166 -351 177 -373 194 -388
13 -10 14 -8 8 13 -4 14 -81 180 -171 370 -90 190 -197 419 -238 510 -97 213
-318 663 -311 630z"/>
<path d="M2990 1945 c0 -9 120 -185 126 -185 7 0 -25 60 -67 122 -36 53 -59
77 -59 63z"/>
<path d="M2352 1859 c-26 -60 -428 -1293 -476 -1456 -8 -29 -11 -53 -7 -53 10
0 77 188 160 450 34 107 127 397 208 643 80 246 143 451 139 454 -3 3 -14 -14
-24 -38z"/>
<path d="M3840 1879 c30 -23 777 -521 808 -538 18 -9 22 -9 22 2 0 12 -677
469 -793 535 -48 27 -71 29 -37 1z"/>
<path d="M2522 1869 c-5 -13 -22 -91 -37 -173 -15 -82 -33 -172 -41 -200 -24
-89 -33 -128 -54 -241 -12 -60 -50 -245 -85 -410 -83 -390 -117 -590 -96 -570
6 6 38 148 71 315 33 168 65 321 70 340 15 56 110 515 131 635 11 61 28 157
39 214 20 100 20 139 2 90z"/>
<path d="M1401 1804 c-39 -19 -71 -40 -71 -45 0 -11 135 55 145 71 9 15 4 13
-74 -26z"/>
<path d="M1770 1660 c-102 -98 -181 -179 -177 -180 11 0 355 330 361 347 3 7
4 13 3 13 -1 0 -85 -81 -187 -180z"/>
<path d="M2666 1788 c-9 -50 -33 -365 -66 -858 -37 -546 -45 -731 -31 -710 13
21 28 198 46 560 8 168 24 422 35 565 27 375 33 475 27 475 -4 0 -9 -15 -11
-32z"/>
<path d="M2146 1744 c-4 -14 -5 -29 -2 -31 3 -3 8 7 12 21 3 15 4 29 1 32 -2
3 -8 -7 -11 -22z"/>
<path d="M3322 1745 c25 -36 184 -219 237 -274 89 -92 68 -46 -25 55 -113 124
-231 245 -212 219z"/>
<path d="M1266 1735 c-16 -12 -17 -15 -4 -15 8 0 21 7 28 15 16 19 1 19 -24 0z"/>
<path d="M2710 1740 c0 -5 5 -10 10 -10 6 0 10 5 10 10 0 6 -4 10 -10 10 -5 0
-10 -4 -10 -10z"/>
<path d="M2001 1609 c-50 -62 -89 -115 -85 -118 5 -6 23 12 115 120 47 56 74
98 66 105 -2 2 -45 -46 -96 -107z"/>
<path d="M2820 1706 c0 -36 418 -1341 440 -1376 29 -45 5 40 -120 430 -165
512 -248 775 -274 862 -24 81 -46 120 -46 84z"/>
<path d="M3145 1710 c3 -5 8 -10 11 -10 2 0 4 5 4 10 0 6 -5 10 -11 10 -5 0
-7 -4 -4 -10z"/>
<path d="M1030 1626 c-320 -151 -480 -236 -443 -236 17 0 569 274 588 292 11
10 17 18 15 18 -3 0 -75 -33 -160 -74z"/>
<path d="M3180 1666 c0 -4 75 -123 167 -265 91 -141 196 -303 233 -361 153
-241 293 -445 308 -449 19 -4 17 -1 -199 329 -221 339 -477 721 -495 740 -8 8
-14 11 -14 6z"/>
<path d="M3726 1629 c10 -12 120 -105 244 -207 124 -102 272 -226 330 -276 58
-49 113 -96 123 -104 30 -26 32 -3 1 29 -16 17 -87 79 -159 137 -71 58 -202
167 -290 242 -88 74 -179 150 -201 168 -48 37 -78 44 -48 11z"/>
<path d="M2740 1488 c0 -34 13 -108 19 -108 9 0 -3 107 -12 116 -4 4 -7 0 -7
-8z"/>
<path d="M1844 1402 c-22 -31 -45 -64 -49 -72 -22 -38 29 18 66 72 51 75 37
75 -17 0z"/>
<path d="M1412 1316 c-75 -74 -135 -137 -132 -140 3 -3 69 58 145 134 77 77
136 140 132 140 -4 0 -70 -60 -145 -134z"/>
<path d="M1962 1353 c-22 -49 -77 -169 -120 -268 -44 -99 -125 -278 -181 -397
-55 -120 -101 -225 -101 -233 0 -29 22 -4 47 54 14 31 74 162 133 291 125 272
264 585 274 618 4 12 3 22 -2 22 -5 0 -27 -39 -50 -87z"/>
<path d="M3646 1378 c10 -19 479 -551 518 -587 19 -18 26 -21 26 -9 0 8 -94
120 -209 249 -200 224 -353 383 -335 347z"/>
<path d="M2771 1283 c-1 -27 51 -472 78 -668 11 -77 27 -194 36 -260 10 -70
22 -126 31 -135 12 -12 14 -12 14 6 0 12 -4 44 -10 72 -5 28 -23 162 -40 299
-61 493 -107 777 -109 686z"/>
<path d="M1680 1193 c-79 -95 -105 -140 -54 -92 23 21 119 144 138 177 21 35
-12 2 -84 -85z"/>
<path d="M1097 1022 c-112 -101 -149 -142 -129 -142 12 0 249 218 256 236 10
27 -10 12 -127 -94z"/>
<path d="M1425 871 c-148 -187 -186 -243 -126 -186 38 35 286 364 280 370 -3
2 -72 -80 -154 -184z"/>
<path d="M10555 3278 c-38 -46 -75 -91 -84 -101 -8 -9 -12 -19 -9 -22 3 -3 34
30 69 72 98 118 102 124 97 129 -3 2 -36 -33 -73 -78z"/>
<path d="M10331 3004 c-66 -79 -85 -110 -62 -102 13 4 141 167 141 179 0 17
-9 8 -79 -77z"/>
<path d="M3895 4644 c-59 -107 -71 -153 -18 -67 94 153 104 173 85 173 -5 0
-35 -47 -67 -106z"/>
<path d="M4194 4514 c-11 -5 -258 -270 -339 -364 -56 -65 213 200 297 293 65
71 72 83 42 71z"/>
<path d="M4320 4159 c-170 -158 -677 -646 -699 -673 -8 -9 -11 -19 -8 -23 4
-3 66 52 139 123 73 71 243 233 378 359 135 127 269 253 299 281 29 28 52 56
49 64 -2 7 -67 -46 -158 -131z"/>
<path d="M3685 4250 c-3 -5 -2 -10 4 -10 5 0 13 5 16 10 3 6 2 10 -4 10 -5 0
-13 -4 -16 -10z"/>
<path d="M3647 4170 c-3 -11 -1 -20 4 -20 5 0 9 2 9 4 0 2 3 11 6 20 3 9 2 16
-4 16 -5 0 -12 -9 -15 -20z"/>
<path d="M3595 4060 c-16 -33 -26 -62 -24 -65 3 -2 19 25 37 60 17 36 28 65
24 65 -5 0 -21 -27 -37 -60z"/>
<path d="M3671 3949 c-40 -44 -71 -82 -69 -85 7 -6 148 143 148 156 0 6 -1 10
-2 10 -2 0 -36 -36 -77 -81z"/>
<path d="M4614 3972 c-89 -55 -491 -313 -601 -387 -40 -26 -73 -52 -73 -57 0
-11 8 -7 185 105 377 237 551 349 564 362 33 33 -1 22 -75 -23z"/>
<path d="M3520 3929 c-13 -24 -4 -41 10 -19 10 16 13 40 5 40 -2 0 -9 -9 -15
-21z"/>
<path d="M3435 3890 c-3 -5 -1 -10 4 -10 6 0 11 5 11 10 0 6 -2 10 -4 10 -3 0
-8 -4 -11 -10z"/>
<path d="M3477 3843 c-4 -3 -7 -11 -7 -17 0 -6 5 -5 12 2 6 6 9 14 7 17 -3 3
-9 2 -12 -2z"/>
<path d="M3535 3800 c-3 -5 -1 -10 4 -10 6 0 11 5 11 10 0 6 -2 10 -4 10 -3 0
-8 -4 -11 -10z"/>
<path d="M3402 3698 c-45 -82 -72 -140 -72 -154 0 -2 4 -4 8 -4 10 0 126 239
120 246 -3 2 -28 -38 -56 -88z"/>
<path d="M4815 3674 c-22 -9 -58 -22 -81 -30 -43 -16 -135 -81 -141 -101 -3
-8 12 -6 44 8 81 34 226 113 231 127 5 15 -4 15 -53 -4z"/>
<path d="M3860 3495 c-13 -14 -45 -39 -72 -56 -26 -17 -48 -35 -48 -41 0 -11
5 -8 80 43 63 42 85 65 72 73 -5 3 -20 -6 -32 -19z"/>
<path d="M4496 3505 c-11 -8 -17 -17 -14 -20 3 -3 16 3 29 14 27 23 14 28 -15
6z"/>
<path d="M4251 3384 c-50 -25 -91 -49 -91 -55 0 -15 11 -11 90 32 68 37 114
69 98 69 -3 0 -47 -21 -97 -46z"/>
<path d="M4881 3355 c-106 -30 -133 -52 -56 -46 33 3 165 52 165 62 0 13 -14
11 -109 -16z"/>
<path d="M4080 3290 c-8 -5 -24 -10 -35 -10 -11 0 -35 -10 -54 -23 -19 -12
-46 -29 -60 -37 -28 -18 -39 -40 -20 -40 7 0 20 6 28 14 18 15 127 72 154 80
9 3 17 10 17 16 0 13 -10 13 -30 0z"/>
<path d="M4585 3265 c-177 -52 -514 -164 -543 -180 -50 -27 2 -16 124 26 65
22 218 70 339 106 121 35 227 69 235 74 33 19 -49 6 -155 -26z"/>
<path d="M4840 3015 c-96 -19 -206 -42 -245 -52 -67 -17 -68 -18 -30 -21 55
-3 478 81 483 96 5 17 -9 15 -208 -23z"/>
<path d="M4468 2923 c7 -3 16 -2 19 1 4 3 -2 6 -13 5 -11 0 -14 -3 -6 -6z"/>
<path d="M4832 2669 c-63 -4 -115 -9 -118 -12 -9 -9 171 -17 250 -12 109 8
134 14 115 26 -16 10 -82 10 -247 -2z"/>
<path d="M11578 4604 c-93 -118 -103 -134 -89 -134 10 0 162 184 181 220 7 12
7 20 1 20 -6 0 -47 -48 -93 -106z"/>
<path d="M11831 4440 c-68 -56 -265 -237 -416 -380 -55 -52 -122 -114 -149
-138 -27 -23 -46 -45 -43 -49 4 -3 15 0 24 9 10 8 128 111 263 229 265 232
400 357 400 370 0 18 -21 7 -79 -41z"/>
<path d="M12064 4162 c-147 -102 -586 -433 -580 -439 12 -12 439 293 631 451
55 45 19 37 -51 -12z"/>
<path d="M11975 3739 c-350 -200 -635 -376 -635 -391 0 -6 11 -3 25 6 14 9
114 67 223 128 108 61 256 145 327 188 72 42 190 110 263 149 126 69 154 91
114 91 -10 0 -152 -77 -317 -171z"/>
<path d="M11087 3763 c-4 -3 -7 -11 -7 -17 0 -6 5 -5 12 2 6 6 9 14 7 17 -3 3
-9 2 -12 -2z"/>
<path d="M11420 3685 c-10 -12 -10 -15 3 -15 8 0 20 7 27 15 10 12 10 15 -3
15 -8 0 -20 -7 -27 -15z"/>
<path d="M11264 3572 c-49 -38 -181 -133 -294 -212 -234 -163 -256 -180 -264
-198 -8 -17 -14 -21 219 141 194 136 445 323 445 332 0 14 -26 -2 -106 -63z"/>
<path d="M12267 3586 c-3 -8 -2 -18 3 -21 13 -8 24 15 12 27 -6 6 -11 4 -15
-6z"/>
<path d="M12385 3586 c-41 -13 -850 -366 -1005 -438 -47 -22 -150 -68 -230
-103 -164 -70 -252 -114 -231 -115 18 0 165 59 336 135 77 34 226 100 330 145
105 45 305 133 445 195 140 61 285 125 323 140 37 15 72 34 78 42 14 16 6 16
-46 -1z"/>
<path d="M11105 3222 c-92 -53 -170 -103 -173 -110 -6 -18 28 0 193 99 162 98
161 97 154 103 -3 3 -81 -38 -174 -92z"/>
<path d="M12460 3259 c-203 -55 -718 -207 -774 -228 -16 -7 -27 -14 -24 -17 9
-8 172 32 373 91 105 31 262 76 349 100 163 45 210 66 146 64 -19 0 -51 -5
-70 -10z"/>
<path d="M10735 3009 c-44 -27 -82 -54 -84 -61 -4 -12 165 75 189 98 33 32
-27 11 -105 -37z"/>
<path d="M11560 2999 c-55 -15 -90 -31 -90 -40 0 -12 -2 -12 74 11 90 28 105
53 16 29z"/>
<path d="M11345 2939 c-40 -10 -63 -24 -54 -34 7 -7 97 24 105 36 6 10 3 10
-51 -2z"/>
<path d="M12480 2943 c-109 -8 -665 -64 -691 -70 -31 -6 -40 -23 -11 -23 25 0
688 59 742 66 63 8 81 14 75 25 -6 9 -23 9 -115 2z"/>
<path d="M10823 2900 c-13 -5 -23 -12 -23 -16 0 -8 53 5 65 17 12 12 -12 11
-42 -1z"/>
<path d="M10535 2880 c-3 -5 -2 -10 4 -10 5 0 13 5 16 10 3 6 2 10 -4 10 -5 0
-13 -4 -16 -10z"/>
<path d="M11121 2872 c-30 -10 -56 -23 -58 -29 -4 -11 131 28 145 42 10 10
-34 3 -87 -13z"/>
<path d="M11460 2834 c-314 -36 -386 -46 -395 -56 -7 -6 16 -7 65 -3 147 13
525 56 560 65 58 13 -97 10 -230 -6z"/>
<path d="M10968 2823 c-19 -5 -25 -23 -9 -23 17 0 41 12 41 21 0 9 -4 10 -32
2z"/>
<path d="M10880 2760 c-43 -7 -42 -7 20 -8 36 0 74 3 85 8 25 11 -37 11 -105
0z"/>
<path d="M10613 2736 c-35 -7 -66 -16 -70 -21 -10 -10 97 2 167 19 l55 14 -45
0 c-25 0 -73 -5 -107 -12z"/>
<path d="M10495 2571 c-3 -5 -1 -12 4 -16 13 -8 61 5 61 16 0 12 -57 12 -65 0z"/>
<path d="M11180 2563 c-126 -7 -107 -23 26 -22 118 1 261 15 184 18 -19 1 -57
3 -85 5 -27 2 -84 1 -125 -1z"/>
<path d="M11576 2561 c-7 -10 33 -23 46 -15 5 3 6 10 3 15 -8 12 -42 12 -49 0z"/>
<path d="M11686 2561 c-14 -5 -16 -10 -7 -15 16 -11 83 2 76 15 -7 11 -42 11
-69 0z"/>
<path d="M11970 2561 l-85 -6 64 -7 c79 -10 527 -9 596 1 118 16 -359 26 -575
12z"/>
<path d="M10572 2539 c-76 -9 -126 -26 -127 -44 0 -13 94 -64 118 -65 28 0 11
18 -41 44 l-46 23 29 7 c17 3 89 11 160 17 72 6 137 15 145 20 19 11 -138 10
-238 -2z"/>
<path d="M10870 2501 c0 -14 38 -20 98 -14 40 5 51 8 37 14 -28 11 -135 11
-135 0z"/>
<path d="M10065 2434 c-19 -26 -35 -52 -35 -58 1 -15 80 76 80 92 0 20 -7 14
-45 -34z"/>
<path d="M10972 2468 c5 -15 28 -23 28 -10 0 5 -7 13 -16 16 -10 4 -14 1 -12
-6z"/>
<path d="M11077 2429 c12 -12 85 -31 92 -24 6 6 -65 35 -86 35 -12 0 -14 -3
-6 -11z"/>
<path d="M9748 2414 c-7 -9 -57 -63 -112 -121 -54 -57 -96 -106 -93 -110 15
-14 252 220 241 238 -8 14 -22 11 -36 -7z"/>
<path d="M11495 2404 c90 -23 218 -34 166 -13 -29 12 -197 39 -231 38 -14 0
16 -12 65 -25z"/>
<path d="M10103 2405 c-3 -9 -3 -18 0 -21 9 -9 27 6 27 22 0 19 -19 18 -27 -1z"/>
<path d="M10156 2403 c-4 -10 -2 -19 3 -21 6 -2 11 -11 11 -20 0 -24 -108
-459 -169 -682 -62 -226 -65 -273 -5 -90 67 202 195 726 192 779 -3 46 -21 65
-32 34z"/>
<path d="M10327 2413 c-4 -3 -7 -15 -7 -25 0 -26 24 -17 28 10 3 21 -8 29 -21
15z"/>
<path d="M10370 2411 c0 -6 49 -157 65 -200 3 -8 8 -12 10 -9 3 3 -1 34 -10
69 -8 35 -15 72 -15 82 0 17 2 17 31 -3 39 -29 51 -17 17 17 -26 25 -98 58
-98 44z"/>
<path d="M10631 2403 c12 -14 68 -43 84 -43 15 0 -10 22 -45 40 -48 24 -57 25
-39 3z"/>
<path d="M9595 2403 c-11 -2 -92 -24 -180 -48 -88 -24 -356 -93 -595 -154
-650 -163 -839 -215 -827 -228 3 -2 270 62 593 143 750 187 1094 278 1094 289
0 6 -57 4 -85 -2z"/>
<path d="M11246 2371 c14 -13 84 -34 91 -27 3 3 -10 13 -30 21 -40 17 -77 20
-61 6z"/>
<path d="M10305 2323 c15 -29 37 -61 48 -70 17 -16 16 -12 -6 32 -13 28 -35
59 -48 70 -21 19 -20 16 6 -32z"/>
<path d="M10639 2342 c24 -34 51 -58 51 -45 0 5 -5 14 -12 21 -17 17 10 15 42
-3 33 -19 46 -19 30 0 -10 12 -108 55 -126 55 -3 0 4 -13 15 -28z"/>
<path d="M11851 2350 c27 -16 630 -130 685 -130 26 0 14 18 -18 29 -34 11
-638 111 -667 111 -15 -1 -15 -1 0 -10z"/>
<path d="M9750 2274 c-36 -25 -73 -50 -82 -57 -10 -6 -18 -15 -18 -20 0 -13
116 53 157 89 56 49 19 41 -57 -12z"/>
<path d="M11410 2315 c0 -14 167 -81 560 -223 423 -153 480 -171 480 -154 0
14 -69 40 -562 216 -480 171 -478 170 -478 161z"/>
<path d="M9300 2252 c-52 -27 -133 -70 -180 -96 -47 -26 -245 -129 -440 -228
-462 -235 -581 -299 -574 -309 5 -9 476 224 874 434 129 68 285 150 345 181
128 67 126 66 94 66 -13 0 -67 -22 -119 -48z"/>
<path d="M10530 2292 c0 -12 91 -92 104 -92 12 0 -21 36 -66 72 -21 16 -38 25
-38 20z"/>
<path d="M10940 2248 c41 -22 228 -115 415 -205 187 -91 474 -230 638 -310
164 -80 300 -143 303 -140 10 10 -46 40 -341 187 -504 250 -1053 510 -1077
510 -7 0 21 -19 62 -42z"/>
<path d="M9812 2239 c2 -6 8 -10 13 -10 5 0 11 4 13 10 2 6 -4 11 -13 11 -9 0
-15 -5 -13 -11z"/>
<path d="M10490 2238 c0 -19 18 -43 25 -36 9 9 -4 48 -16 48 -5 0 -9 -6 -9
-12z"/>
<path d="M10825 2240 c8 -12 184 -143 216 -160 13 -7 41 -27 61 -43 21 -17 40
-28 43 -25 3 3 -38 39 -92 80 -171 131 -249 182 -228 148z"/>
<path d="M10312 2223 c-14 -27 -103 -592 -95 -603 14 -17 46 142 78 380 8 63
20 141 26 173 12 59 8 83 -9 50z"/>
<path d="M10745 2193 c7 -31 23 -53 36 -53 5 0 0 18 -11 40 -24 46 -35 52 -25
13z"/>
<path d="M10380 2205 c0 -6 34 -69 76 -140 42 -72 87 -152 101 -180 40 -79
127 -209 131 -197 2 6 -21 53 -51 104 -29 51 -87 152 -127 225 -68 124 -129
211 -130 188z"/>
<path d="M10026 2175 c-9 -13 -16 -27 -16 -31 0 -10 30 17 41 38 15 27 -6 22
-25 -7z"/>
<path d="M9875 2179 c-4 -6 -5 -13 -2 -16 7 -7 27 6 27 18 0 12 -17 12 -25 -2z"/>
<path d="M9509 2117 c-212 -135 -650 -429 -645 -434 3 -3 54 25 113 62 59 38
172 108 250 156 78 48 193 125 255 170 132 95 123 88 116 94 -3 3 -43 -19 -89
-48z"/>
<path d="M10670 2161 c0 -12 162 -152 169 -146 2 3 -27 33 -64 67 -81 75 -105
93 -105 79z"/>
<path d="M9806 2092 c-41 -56 -49 -93 -10 -47 30 36 57 85 51 91 -3 3 -21 -17
-41 -44z"/>
<path d="M10184 2107 c10 -44 47 -139 53 -133 6 6 -33 125 -48 146 -8 12 -9 9
-5 -13z"/>
<path d="M9917 2008 c-50 -67 -159 -239 -154 -244 5 -5 89 112 162 224 34 51
27 67 -8 20z"/>
<path d="M9681 1934 c-36 -41 -49 -64 -37 -64 9 0 88 101 83 106 -2 3 -23 -16
-46 -42z"/>
<path d="M11200 1966 c8 -11 92 -76 185 -146 94 -70 211 -159 260 -199 94 -75
373 -273 438 -311 20 -12 37 -18 37 -13 0 10 -104 90 -310 236 -74 53 -209
151 -300 218 -221 163 -328 237 -310 215z"/>
<path d="M10133 1910 c11 -115 30 -247 37 -265 15 -35 11 80 -6 189 -16 104
-40 161 -31 76z"/>
<path d="M10904 1941 c10 -16 203 -181 212 -181 13 0 -106 117 -157 156 -46
33 -65 43 -55 25z"/>
<path d="M9247 1853 c-4 -3 -7 -11 -7 -17 0 -6 5 -5 12 2 6 6 9 14 7 17 -3 3
-9 2 -12 -2z"/>
<path d="M11011 1784 c0 -11 3 -14 6 -6 3 7 2 16 -1 19 -3 4 -6 -2 -5 -13z"/>
<path d="M10280 1763 c-1 -19 45 -173 51 -173 8 0 7 5 -16 108 -10 39 -21 72
-26 72 -5 0 -9 -3 -9 -7z"/>
<path d="M10590 1730 c0 -19 3 -21 12 -12 9 9 9 15 0 24 -9 9 -12 7 -12 -12z"/>
<path d="M9713 1697 c-27 -29 -36 -47 -25 -47 10 0 56 60 50 66 -3 2 -14 -6
-25 -19z"/>
<path d="M11160 1717 c0 -2 15 -16 33 -33 l32 -29 -29 33 c-28 30 -36 37 -36
29z"/>
<path d="M8794 1645 c-10 -8 -14 -15 -8 -15 5 0 19 7 30 15 10 8 14 15 8 15
-5 0 -19 -7 -30 -15z"/>
<path d="M9437 1642 c-19 -20 -23 -37 -7 -27 10 6 33 45 27 45 -2 0 -11 -8
-20 -18z"/>
<path d="M8611 1531 c-10 -6 -10 -10 -1 -16 13 -8 24 -1 19 14 -3 6 -10 7 -18
2z"/>
<path d="M10192 1475 c-13 -64 -62 -424 -62 -458 0 -46 11 -3 29 114 11 68 27
166 36 217 9 50 15 113 13 140 l-3 47 -13 -60z"/>
<path d="M10357 1468 c3 -18 10 -37 16 -43 6 -7 8 -2 3 15 -3 14 -6 33 -6 43
0 9 -4 17 -10 17 -5 0 -7 -14 -3 -32z"/>
<path d="M11415 1470 c23 -30 308 -301 402 -382 37 -32 71 -58 77 -58 23 0
-373 375 -469 443 l-29 21 19 -24z"/>
<path d="M10820 1440 c0 -5 5 -10 11 -10 5 0 7 5 4 10 -3 6 -8 10 -11 10 -2 0
-4 -4 -4 -10z"/>
<path d="M8425 1412 c-101 -56 -171 -112 -138 -112 6 0 179 115 198 132 19 17
-11 7 -60 -20z"/>
<path d="M10686 1405 c3 -22 10 -44 15 -49 14 -15 10 25 -6 59 l-15 30 6 -40z"/>
<path d="M9930 1426 c0 -1 -14 -56 -31 -120 -28 -108 -35 -175 -12 -116 19 48
60 240 52 240 -5 0 -9 -2 -9 -4z"/>
<path d="M10380 1376 c0 -9 5 -16 10 -16 6 0 10 4 10 9 0 6 -4 13 -10 16 -5 3
-10 -1 -10 -9z"/>
<path d="M11260 1375 c0 -16 82 -155 91 -155 6 0 5 9 -2 21 -21 40 -89 142
-89 134z"/>
<path d="M10890 1310 c0 -7 10 -26 23 -43 12 -18 30 -46 39 -63 26 -50 88
-144 94 -144 6 0 -6 23 -78 147 -58 100 -78 126 -78 103z"/>
<path d="M10427 1190 c3 -25 9 -54 14 -65 6 -16 8 -12 8 15 0 19 -6 49 -14 65
-14 30 -14 30 -8 -15z"/>
<path d="M10750 1178 c0 -16 5 -28 10 -28 13 0 13 20 0 40 -8 12 -10 9 -10
-12z"/>
<path d="M11370 1186 c0 -19 160 -299 208 -363 26 -36 45 -44 35 -15 -3 9 -49
89 -101 176 -90 150 -141 223 -142 202z"/>
<path d="M8550 1105 c-24 -25 -42 -47 -39 -50 3 -2 25 15 49 40 24 25 42 47
39 50 -3 2 -25 -15 -49 -40z"/>
<path d="M9841 1083 c-14 -48 -14 -60 -2 -47 11 10 26 84 18 84 -4 0 -11 -17
-16 -37z"/>
<path d="M10780 1070 c0 -5 5 -10 11 -10 5 0 7 5 4 10 -3 6 -8 10 -11 10 -2 0
-4 -4 -4 -10z"/>
<path d="M8934 1037 c-41 -46 -46 -61 -9 -25 22 21 37 40 34 43 -3 3 -14 -5
-25 -18z"/>
<path d="M10470 1049 c0 -33 23 -129 32 -129 5 0 7 8 4 18 -3 9 -8 35 -12 57
-8 46 -23 81 -24 54z"/>
<path d="M10240 988 c0 -9 5 -20 10 -23 13 -8 13 5 0 25 -8 13 -10 13 -10 -2z"/>
<path d="M9810 944 c-22 -56 -52 -176 -46 -181 3 -4 7 -4 9 -2 9 12 58 202 53
206 -3 3 -10 -7 -16 -23z"/>
<path d="M10820 936 c0 -25 43 -151 47 -139 2 6 -5 43 -17 82 -20 68 -30 87
-30 57z"/>
<path d="M8811 895 c-33 -38 -36 -45 -22 -45 11 0 65 70 58 76 -2 3 -18 -11
-36 -31z"/>
<path d="M11121 920 c0 -8 6 -24 14 -34 11 -15 15 -16 15 -5 0 8 -7 24 -15 35
-11 14 -14 15 -14 4z"/>
<path d="M10097 847 c-4 -10 -7 -28 -7 -40 1 -20 2 -20 11 -4 6 10 9 28 7 40
-3 20 -4 20 -11 4z"/>
<path d="M11180 821 c0 -18 106 -208 121 -217 25 -15 -12 66 -69 154 -52 79
-52 79 -52 63z"/>
<path d="M9070 730 c-23 -34 -39 -64 -35 -68 8 -8 38 29 66 81 32 60 16 53
-31 -13z"/>
<path d="M10536 773 c9 -38 84 -387 84 -390 0 -2 5 -3 10 -3 17 0 11 46 -29
202 -21 84 -41 165 -45 181 -4 15 -10 27 -15 27 -5 0 -7 -8 -5 -17z"/>
<path d="M10282 725 c0 -16 3 -39 8 -50 l9 -20 -1 20 c0 11 -4 34 -8 50 l-8
30 0 -30z"/>
<path d="M10881 732 c-2 -23 49 -214 64 -241 l14 -26 0 25 c0 27 -76 264 -78
242z"/>
<path d="M9372 688 c-25 -63 -62 -172 -62 -182 1 -27 33 37 56 111 26 83 30
132 6 71z"/>
<path d="M9730 675 c-16 -42 -66 -215 -73 -252 -11 -56 10 -36 32 30 44 132
78 320 41 222z"/>
<path d="M10033 505 c-32 -136 -36 -162 -24 -169 12 -8 26 39 41 141 18 112 7
129 -17 28z"/>
<path d="M10306 468 c9 -89 15 -118 24 -118 13 0 13 44 -1 113 -15 72 -30 74
-23 5z"/>
<path d="M8620 4391 c0 -5 5 -13 10 -16 6 -3 10 -2 10 4 0 5 -4 13 -10 16 -5
3 -10 2 -10 -4z"/>
<path d="M8310 4220 c0 -5 5 -10 11 -10 5 0 7 5 4 10 -3 6 -8 10 -11 10 -2 0
-4 -4 -4 -10z"/>
<path d="M8396 4142 c108 -87 196 -154 200 -150 9 10 -191 168 -212 168 -5 0
1 -8 12 -18z"/>
<path d="M8130 3941 c0 -11 301 -193 308 -186 7 7 -21 28 -103 77 -38 23 -97
58 -131 80 -63 40 -74 44 -74 29z"/>
<path d="M8705 3890 c10 -11 23 -20 28 -20 6 0 2 9 -8 20 -10 11 -23 20 -28
20 -6 0 -2 -9 8 -20z"/>
<path d="M9141 3832 c140 -158 178 -197 179 -184 0 7 -57 70 -126 140 -96 96
-108 107 -53 44z"/>
<path d="M8470 3735 c0 -7 230 -159 278 -184 24 -12 46 -20 49 -18 6 6 -52 45
-200 135 -114 70 -127 77 -127 67z"/>
<path d="M8925 3710 c3 -5 8 -10 11 -10 2 0 4 5 4 10 0 6 -5 10 -11 10 -5 0
-7 -4 -4 -10z"/>
<path d="M9358 3593 c28 -38 81 -88 87 -81 7 7 -84 108 -97 108 -5 0 0 -12 10
-27z"/>
<path d="M7940 3585 c0 -16 432 -188 458 -183 10 2 -41 28 -113 57 -194 80
-345 135 -345 126z"/>
<path d="M9140 3546 c55 -52 399 -355 455 -400 38 -32 61 -44 63 -36 3 7 -3
17 -13 22 -23 14 -140 113 -260 223 -132 121 -246 215 -259 215 -6 0 1 -11 14
-24z"/>
<path d="M8820 3522 c0 -5 35 -31 78 -58 42 -26 188 -121 325 -210 136 -90
247 -159 247 -154 0 21 -294 222 -505 345 -55 32 -110 65 -122 73 -13 8 -23
10 -23 4z"/>
<path d="M9490 3452 c0 -14 39 -46 47 -39 3 4 -2 16 -12 27 -19 21 -35 26 -35
12z"/>
<path d="M8450 3386 c0 -8 173 -76 193 -76 19 1 19 3 -7 17 -29 15 -163 63
-178 63 -4 0 -8 -2 -8 -4z"/>
<path d="M7855 3312 c9 -9 148 -42 235 -56 32 -5 33 -4 16 9 -32 25 -274 70
-251 47z"/>
<path d="M8755 3270 c3 -5 13 -10 21 -10 8 0 12 5 9 10 -3 6 -13 10 -21 10 -8
0 -12 -4 -9 -10z"/>
<path d="M8860 3226 c0 -3 17 -10 38 -17 20 -6 94 -36 165 -66 138 -59 199
-67 77 -10 -121 57 -280 109 -280 93z"/>
<path d="M8033 3213 c-22 -8 -14 -23 12 -23 14 0 25 4 25 9 0 11 -21 19 -37
14z"/>
<path d="M9520 3140 c0 -5 7 -10 16 -10 8 0 12 5 9 10 -3 6 -10 10 -16 10 -5
0 -9 -4 -9 -10z"/>
<path d="M3173 3430 c-41 -30 -62 -60 -42 -60 14 0 95 77 88 84 -3 3 -24 -8
-46 -24z"/>
<path d="M3245 3388 c-7 -18 -11 -35 -8 -38 7 -8 33 32 33 52 0 27 -9 22 -25
-14z"/>
<path d="M3416 3299 c-30 -23 -58 -67 -34 -54 23 14 49 39 59 57 12 23 8 23
-25 -3z"/>
<path d="M3473 3214 c-18 -14 -33 -30 -33 -35 0 -12 55 19 77 44 26 27 -6 22
-44 -9z"/>
<path d="M3668 3090 c-32 -18 -58 -40 -44 -40 13 0 95 40 100 49 11 17 -15 12
-56 -9z"/>
<path d="M3791 3020 c-65 -23 -87 -40 -50 -39 35 1 122 33 127 47 5 17 -14 14
-77 -8z"/>
<path d="M4025 2873 c-50 -11 -85 -25 -80 -32 6 -11 103 7 135 24 l25 14 -30
-1 c-16 0 -39 -2 -50 -5z"/>
<path d="M4295 2661 c-16 -7 -13 -9 18 -15 43 -8 109 2 101 15 -6 11 -91 11
-119 0z"/>
<path d="M4755 2390 c3 -5 11 -10 16 -10 6 0 7 5 4 10 -3 6 -11 10 -16 10 -6
0 -7 -4 -4 -10z"/>
<path d="M4825 2380 c3 -5 10 -10 16 -10 5 0 9 5 9 10 0 6 -7 10 -16 10 -8 0
-12 -4 -9 -10z"/>
<path d="M9235 2940 c3 -5 18 -10 33 -9 24 0 25 1 7 9 -28 12 -47 12 -40 0z"/>
<path d="M9590 2936 c38 -20 139 -50 146 -43 14 13 -10 26 -76 41 -83 19 -103
20 -70 2z"/>
<path d="M8493 2913 c-21 -4 -33 -23 -15 -23 57 -1 766 -44 910 -55 115 -9
199 -12 208 -7 14 8 14 10 -2 16 -18 7 -227 22 -694 51 -384 23 -383 23 -407
18z"/>
<path d="M7492 2580 c14 -22 24 -19 15 5 -4 8 -11 15 -17 15 -6 0 -6 -7 2 -20z"/>
<path d="M7172 2474 c-46 -32 -9 -124 50 -124 28 0 64 23 78 50 31 58 -69 116
-128 74z m88 -33 c0 -18 -37 -54 -48 -47 -13 8 -16 39 -5 49 10 10 53 8 53 -2z"/>
<path d="M5161 7956 c-7 -8 -8 -16 -4 -19 12 -7 53 11 53 23 0 15 -36 12 -49
-4z"/>
<path d="M4965 7870 c-3 -5 1 -10 10 -10 9 0 13 5 10 10 -3 6 -8 10 -10 10 -2
0 -7 -4 -10 -10z"/>
<path d="M12750 3163 c0 -47 8 -73 22 -73 11 0 0 90 -13 105 -5 5 -9 -8 -9
-32z"/>
<path d="M995 580 c3 -5 11 -10 16 -10 6 0 7 5 4 10 -3 6 -11 10 -16 10 -6 0
-7 -4 -4 -10z"/>
<path d="M1440 330 c20 -13 43 -13 35 0 -3 6 -16 10 -28 10 -18 0 -19 -2 -7
-10z"/>
<path d="M1529 242 c28 -20 209 -92 231 -92 12 0 12 3 -2 16 -20 20 -203 94
-231 93 -22 0 -21 0 2 -17z"/>
<path d="M10854 235 c-212 -54 -286 -61 -719 -72 -82 -2 -154 -8 -160 -14 -14
-14 -34 -11 -79 10 -23 11 -62 23 -88 26 -41 6 -48 5 -48 -9 0 -21 42 -37 79
-30 16 4 32 1 35 -5 9 -13 269 -14 566 -1 159 7 219 13 269 29 36 11 99 26
140 33 42 7 82 18 90 26 8 7 30 13 50 12 51 -3 58 -1 41 10 -23 15 -77 11
-176 -15z"/>
<path d="M9715 160 c3 -5 11 -10 16 -10 6 0 7 5 4 10 -3 6 -11 10 -16 10 -6 0
-7 -4 -4 -10z"/>
<path d="M1820 133 c8 -3 20 -11 25 -17 6 -7 22 -9 40 -5 l30 6 -28 11 c-16 7
-40 12 -55 11 -15 0 -20 -3 -12 -6z"/>
<path d="M1950 99 c0 -4 6 -10 13 -12 9 -4 8 -8 -3 -16 -12 -9 -10 -11 10 -10
14 0 44 4 67 7 l43 7 -65 15 c-36 9 -65 13 -65 9z"/>
</g>
</svg>
